<?xml version="1.0" encoding="UTF-8" standalone="no"?>
<!DOCTYPE svg PUBLIC "-//W3C//DTD SVG 1.1//EN"
 "http://www.w3.org/Graphics/SVG/1.1/DTD/svg11.dtd">
<!-- Generated by graphviz version 2.43.0 (0)
 -->
<!-- Title: Deployment Pages: 1 -->
<svg width="913pt" height="491pt"
 viewBox="0.00 0.00 913.00 491.25" xmlns="http://www.w3.org/2000/svg" xmlns:xlink="http://www.w3.org/1999/xlink">
<g id="graph0" class="graph" transform="scale(1 1) rotate(0) translate(36 455.25)">
<title>Deployment</title>
<polygon fill="white" stroke="transparent" points="-36,36 -36,-455.25 877,-455.25 877,36 -36,36"/>
<text text-anchor="start" x="184.5" y="-399.45" font-family="Arial" font-weight="bold" font-size="16.00">Диаграмма развёртывания и инфраструктуры платформы</text>
<!-- user -->
<g id="node1" class="node">
<title>user</title>
<path fill="#ede9fe" stroke="#7c3aed" stroke-width="2.5" d="M374.5,-385.25C374.5,-385.25 289.5,-385.25 289.5,-385.25 283.5,-385.25 277.5,-379.25 277.5,-373.25 277.5,-373.25 277.5,-361.25 277.5,-361.25 277.5,-355.25 283.5,-349.25 289.5,-349.25 289.5,-349.25 374.5,-349.25 374.5,-349.25 380.5,-349.25 386.5,-355.25 386.5,-361.25 386.5,-361.25 386.5,-373.25 386.5,-373.25 386.5,-379.25 380.5,-385.25 374.5,-385.25"/>
<text text-anchor="start" x="285.5" y="-364.85" font-family="Arial" font-weight="bold" font-size="13.00">Пользователь</text>
</g>
<!-- browser -->
<g id="node2" class="node">
<title>browser</title>
<path fill="#ede9fe" stroke="#8b5cf6" stroke-width="1.5" d="M377,-281.25C377,-281.25 287,-281.25 287,-281.25 281,-281.25 275,-275.25 275,-269.25 275,-269.25 275,-256.25 275,-256.25 275,-250.25 281,-244.25 287,-244.25 287,-244.25 377,-244.25 377,-244.25 383,-244.25 389,-250.25 389,-256.25 389,-256.25 389,-269.25 389,-269.25 389,-275.25 383,-281.25 377,-281.25"/>
<text text-anchor="start" x="309" y="-269.45" font-family="Arial" font-weight="bold" font-size="11.00">Браузер</text>
<text text-anchor="start" x="306" y="-260.05" font-family="Arial" font-size="9.00" fill="#666666">PWA&#45;клиент</text>
<text text-anchor="start" x="283" y="-251.05" font-family="Arial" font-size="9.00" fill="#666666">Nuxt 3 / Vue 3 / Tailwind</text>
</g>
<!-- user&#45;&gt;browser -->
<g id="edge1" class="edge">
<title>user&#45;&gt;browser</title>
<path fill="none" stroke="#7c3aed" stroke-width="1.3" d="M332,-348.86C332,-332.32 332,-307.27 332,-288.62"/>
<polygon fill="#7c3aed" stroke="#7c3aed" stroke-width="1.3" points="334.45,-288.57 332,-281.57 329.55,-288.57 334.45,-288.57"/>
<text text-anchor="middle" x="361.5" y="-313.05" font-family="Arial" font-size="9.00" fill="#7c3aed"> &#160;HTTPS :443 &#160;</text>
</g>
<!-- sw_client -->
<g id="node3" class="node">
<title>sw_client</title>
<path fill="#ede9fe" stroke="#8b5cf6" stroke-width="1.5" d="M603.5,-280.75C603.5,-280.75 508.5,-280.75 508.5,-280.75 502.5,-280.75 496.5,-274.75 496.5,-268.75 496.5,-268.75 496.5,-256.75 496.5,-256.75 496.5,-250.75 502.5,-244.75 508.5,-244.75 508.5,-244.75 603.5,-244.75 603.5,-244.75 609.5,-244.75 615.5,-250.75 615.5,-256.75 615.5,-256.75 615.5,-268.75 615.5,-268.75 615.5,-274.75 609.5,-280.75 603.5,-280.75"/>
<text text-anchor="start" x="515.5" y="-264.95" font-family="Arial" font-weight="bold" font-size="11.00">Service Worker</text>
<text text-anchor="start" x="504.5" y="-255.55" font-family="Arial" font-size="9.00" fill="#666666">Cache API / Offline Mode</text>
</g>
<!-- browser&#45;&gt;sw_client -->
<g id="edge2" class="edge">
<title>browser&#45;&gt;sw_client</title>
<path fill="none" stroke="#8b5cf6" stroke-width="1.3" stroke-dasharray="5,2" d="M389.1,-262.75C419.59,-262.75 457.29,-262.75 489.14,-262.75"/>
<polygon fill="#8b5cf6" stroke="#8b5cf6" stroke-width="1.3" points="489.26,-265.2 496.26,-262.75 489.26,-260.3 489.26,-265.2"/>
<text text-anchor="middle" x="442.75" y="-278.55" font-family="Arial" font-size="9.00" fill="#8b5cf6">регистрация</text>
<text text-anchor="middle" x="442.75" y="-268.55" font-family="Arial" font-size="9.00" fill="#8b5cf6">и кэширование</text>
</g>
<!-- ssr -->
<g id="node5" class="node">
<title>ssr</title>
<path fill="#7c3aed" stroke="#5b21b6" stroke-width="2" d="M816,-166.25C816,-166.25 736,-166.25 736,-166.25 730,-166.25 724,-160.25 724,-154.25 724,-154.25 724,-142.25 724,-142.25 724,-136.25 730,-130.25 736,-130.25 736,-130.25 816,-130.25 816,-130.25 822,-130.25 828,-136.25 828,-142.25 828,-142.25 828,-154.25 828,-154.25 828,-160.25 822,-166.25 816,-166.25"/>
<text text-anchor="start" x="745.5" y="-150.45" font-family="Arial" font-weight="bold" font-size="11.00" fill="white">Nuxt 3 SSR</text>
<text text-anchor="start" x="732" y="-141.05" font-family="Arial" font-size="9.00" fill="#dddddd">+ Static Assets (CDN)</text>
</g>
<!-- browser&#45;&gt;ssr -->
<g id="edge3" class="edge">
<title>browser&#45;&gt;ssr</title>
<path fill="none" stroke="#7c3aed" stroke-width="1.3" d="M389.14,-247.27C473.74,-225.84 631.52,-185.86 717.12,-164.17"/>
<polygon fill="#7c3aed" stroke="#7c3aed" stroke-width="1.3" points="717.73,-166.54 723.91,-162.45 716.52,-161.79 717.73,-166.54"/>
<text text-anchor="middle" x="632" y="-203.05" font-family="Arial" font-size="9.00" fill="#333333"> &#160;HTML / CSS / JS &#160;</text>
</g>
<!-- nitro -->
<g id="node6" class="node">
<title>nitro</title>
<path fill="#7c3aed" stroke="#5b21b6" stroke-width="2" d="M355.5,-166.25C355.5,-166.25 256.5,-166.25 256.5,-166.25 250.5,-166.25 244.5,-160.25 244.5,-154.25 244.5,-154.25 244.5,-142.25 244.5,-142.25 244.5,-136.25 250.5,-130.25 256.5,-130.25 256.5,-130.25 355.5,-130.25 355.5,-130.25 361.5,-130.25 367.5,-136.25 367.5,-142.25 367.5,-142.25 367.5,-154.25 367.5,-154.25 367.5,-160.25 361.5,-166.25 355.5,-166.25"/>
<text text-anchor="start" x="263" y="-150.45" font-family="Arial" font-weight="bold" font-size="11.00" fill="white">Nitro API Server</text>
<text text-anchor="start" x="252.5" y="-141.05" font-family="Arial" font-size="9.00" fill="#dddddd">REST / SSE / AI endpoints</text>
</g>
<!-- browser&#45;&gt;nitro -->
<g id="edge4" class="edge">
<title>browser&#45;&gt;nitro</title>
<path fill="none" stroke="#7c3aed" stroke-width="1.3" d="M302.06,-244.07C292.19,-236.55 282.37,-226.82 277,-215.25 270.44,-201.1 277.13,-185.09 285.74,-172.38"/>
<polygon fill="#7c3aed" stroke="#7c3aed" stroke-width="1.3" points="287.93,-173.53 290.06,-166.43 283.97,-170.65 287.93,-173.53"/>
<text text-anchor="middle" x="314.5" y="-203.05" font-family="Arial" font-size="9.00" fill="#333333"> &#160;REST API / SSE &#160;</text>
</g>
<!-- sw_client&#45;&gt;nitro -->
<g id="edge5" class="edge">
<title>sw_client&#45;&gt;nitro</title>
<path fill="none" stroke="#8b5cf6" stroke-width="1.3" stroke-dasharray="5,2" d="M496.17,-248.74C466.41,-241.08 430.4,-229.97 400,-215.25 375.49,-203.38 350.38,-185.4 332.29,-171.19"/>
<polygon fill="#8b5cf6" stroke="#8b5cf6" stroke-width="1.3" points="333.43,-168.98 326.43,-166.54 330.38,-172.81 333.43,-168.98"/>
<text text-anchor="middle" x="425" y="-208.05" font-family="Arial" font-size="9.00" fill="#8b5cf6">network&#45;first</text>
<text text-anchor="middle" x="425" y="-198.05" font-family="Arial" font-size="9.00" fill="#8b5cf6">для API</text>
</g>
<!-- s3 -->
<g id="node8" class="node">
<title>s3</title>
<polygon fill="#f8fafc" stroke="#8b5cf6" stroke-width="1.5" points="595,-44.62 493,-44.62 489,-40.62 489,-7.62 591,-7.62 595,-11.62 595,-44.62"/>
<polyline fill="none" stroke="#8b5cf6" stroke-width="1.5" points="591,-40.62 489,-40.62 "/>
<polyline fill="none" stroke="#8b5cf6" stroke-width="1.5" points="591,-40.62 591,-7.62 "/>
<polyline fill="none" stroke="#8b5cf6" stroke-width="1.5" points="591,-40.62 595,-44.62 "/>
<text text-anchor="start" x="497" y="-32.83" font-family="Arial" font-weight="bold" font-size="11.00">Yandex Cloud S3</text>
<text text-anchor="start" x="511.5" y="-23.43" font-family="Arial" font-size="9.00" fill="#666666">Object Storage</text>
<text text-anchor="start" x="510.5" y="-14.43" font-family="Arial" font-size="9.00" fill="#666666">Images / Media</text>
</g>
<!-- sw_client&#45;&gt;s3 -->
<g id="edge6" class="edge">
<title>sw_client&#45;&gt;s3</title>
<path fill="none" stroke="#8b5cf6" stroke-width="1.3" stroke-dasharray="5,2" d="M567.45,-244.43C572.35,-236 577.51,-225.49 580,-215.25 594.05,-157.38 597.94,-138.04 580,-81.25 576.48,-70.11 569.76,-59.28 562.94,-50.27"/>
<polygon fill="#8b5cf6" stroke="#8b5cf6" stroke-width="1.3" points="564.73,-48.6 558.47,-44.63 560.89,-51.64 564.73,-48.6"/>
<text text-anchor="middle" x="630.5" y="-151.05" font-family="Arial" font-size="9.00" fill="#8b5cf6">cache&#45;first</text>
<text text-anchor="middle" x="630.5" y="-141.05" font-family="Arial" font-size="9.00" fill="#8b5cf6">для изображений</text>
</g>
<!-- actions -->
<g id="node4" class="node">
<title>actions</title>
<path fill="#ede9fe" stroke="#8b5cf6" stroke-width="1.5" d="M823.5,-280.75C823.5,-280.75 728.5,-280.75 728.5,-280.75 722.5,-280.75 716.5,-274.75 716.5,-268.75 716.5,-268.75 716.5,-256.75 716.5,-256.75 716.5,-250.75 722.5,-244.75 728.5,-244.75 728.5,-244.75 823.5,-244.75 823.5,-244.75 829.5,-244.75 835.5,-250.75 835.5,-256.75 835.5,-256.75 835.5,-268.75 835.5,-268.75 835.5,-274.75 829.5,-280.75 823.5,-280.75"/>
<text text-anchor="start" x="735.5" y="-264.95" font-family="Arial" font-weight="bold" font-size="11.00">GitHub Actions</text>
<text text-anchor="start" x="724.5" y="-255.55" font-family="Arial" font-size="9.00" fill="#666666">Lint / Typecheck / Deploy</text>
</g>
<!-- actions&#45;&gt;ssr -->
<g id="edge7" class="edge">
<title>actions&#45;&gt;ssr</title>
<path fill="none" stroke="#6b7280" stroke-width="1.3" d="M776,-244.66C776,-225.75 776,-195.11 776,-173.66"/>
<polygon fill="#6b7280" stroke="#6b7280" stroke-width="1.3" points="778.45,-173.5 776,-166.5 773.55,-173.5 778.45,-173.5"/>
<text text-anchor="middle" x="808.5" y="-208.05" font-family="Arial" font-size="9.00" fill="#666666"> &#160;auto deploy</text>
<text text-anchor="middle" x="808.5" y="-198.05" font-family="Arial" font-size="9.00" fill="#666666"> &#160;(push в main) &#160;</text>
</g>
<!-- sentry -->
<g id="node11" class="node">
<title>sentry</title>
<path fill="#f3f4f6" stroke="#9ca3af" stroke-width="1.5" d="M717,-44.12C717,-44.12 679,-44.12 679,-44.12 673,-44.12 667,-38.12 667,-32.12 667,-32.12 667,-20.12 667,-20.12 667,-14.12 673,-8.12 679,-8.12 679,-8.12 717,-8.12 717,-8.12 723,-8.12 729,-14.12 729,-20.12 729,-20.12 729,-32.12 729,-32.12 729,-38.12 723,-44.12 717,-44.12"/>
<text text-anchor="start" x="682.5" y="-28.12" font-family="Arial" font-weight="bold" font-size="10.00">Sentry</text>
<text text-anchor="start" x="675" y="-19.73" font-family="Arial" font-size="8.00" fill="#888888">Мониторинг</text>
</g>
<!-- ssr&#45;&gt;sentry -->
<g id="edge13" class="edge">
<title>ssr&#45;&gt;sentry</title>
<path fill="none" stroke="#9ca3af" stroke-width="1.3" stroke-dasharray="5,2" d="M764.82,-130.04C751.21,-109.08 728.17,-73.58 713.02,-50.25"/>
<polygon fill="#9ca3af" stroke="#9ca3af" stroke-width="1.3" points="715.02,-48.84 709.15,-44.3 710.91,-51.51 715.02,-48.84"/>
<text text-anchor="middle" x="767.5" y="-89.05" font-family="Arial" font-size="9.00" fill="#888888">client errors</text>
</g>
<!-- turso -->
<g id="node7" class="node">
<title>turso</title>
<path fill="#7c3aed" stroke="#5b21b6" stroke-width="2" d="M382,-47.6C382,-50.24 357.35,-52.38 327,-52.38 296.65,-52.38 272,-50.24 272,-47.6 272,-47.6 272,-4.65 272,-4.65 272,-2.01 296.65,0.13 327,0.13 357.35,0.13 382,-2.01 382,-4.65 382,-4.65 382,-47.6 382,-47.6"/>
<path fill="none" stroke="#5b21b6" stroke-width="2" d="M382,-47.6C382,-44.97 357.35,-42.83 327,-42.83 296.65,-42.83 272,-44.97 272,-47.6"/>
<text text-anchor="start" x="283" y="-32.52" font-family="Arial" font-weight="bold" font-size="12.00" fill="white">Turso Edge DB</text>
<text text-anchor="start" x="280" y="-22.92" font-family="Arial" font-size="9.00" fill="#dddddd">SQLite + edge replicas</text>
<text text-anchor="start" x="301" y="-13.93" font-family="Arial" font-size="9.00" fill="#dddddd">Drizzle ORM</text>
</g>
<!-- nitro&#45;&gt;turso -->
<g id="edge8" class="edge">
<title>nitro&#45;&gt;turso</title>
<path fill="none" stroke="#7c3aed" stroke-width="1.3" d="M301.96,-130.23C299.42,-116.77 297.27,-97.61 301,-81.25 302.72,-73.7 305.63,-65.98 308.89,-58.82"/>
<polygon fill="#7c3aed" stroke="#7c3aed" stroke-width="1.3" points="311.14,-59.79 311.97,-52.42 306.73,-57.66 311.14,-59.79"/>
<text text-anchor="middle" x="336" y="-94.05" font-family="Arial" font-size="9.00" fill="#333333"> &#160;libSQL (HTTPS)</text>
<text text-anchor="middle" x="336" y="-84.05" font-family="Arial" font-size="9.00" fill="#333333"> &#160;Drizzle ORM &#160;</text>
</g>
<!-- nitro&#45;&gt;s3 -->
<g id="edge9" class="edge">
<title>nitro&#45;&gt;s3</title>
<path fill="none" stroke="#7c3aed" stroke-width="1.3" d="M333.37,-130.08C355.96,-116.2 389.05,-96.53 419,-81.25 442.65,-69.19 469.57,-57.16 492.18,-47.52"/>
<polygon fill="#7c3aed" stroke="#7c3aed" stroke-width="1.3" points="493.26,-49.72 498.75,-44.73 491.35,-45.21 493.26,-49.72"/>
<text text-anchor="middle" x="456" y="-94.05" font-family="Arial" font-size="9.00" fill="#333333"> &#160;AWS SDK</text>
<text text-anchor="middle" x="456" y="-84.05" font-family="Arial" font-size="9.00" fill="#333333"> &#160;pre&#45;signed URL &#160;</text>
</g>
<!-- geo -->
<g id="node9" class="node">
<title>geo</title>
<path fill="#f3f4f6" stroke="#9ca3af" stroke-width="1.5" d="M76,-44.12C76,-44.12 12,-44.12 12,-44.12 6,-44.12 0,-38.12 0,-32.12 0,-32.12 0,-20.12 0,-20.12 0,-14.12 6,-8.12 12,-8.12 12,-8.12 76,-8.12 76,-8.12 82,-8.12 88,-14.12 88,-20.12 88,-20.12 88,-32.12 88,-32.12 88,-38.12 82,-44.12 76,-44.12"/>
<text text-anchor="start" x="8" y="-28.12" font-family="Arial" font-weight="bold" font-size="10.00">Nominatim API</text>
<text text-anchor="start" x="13" y="-19.73" font-family="Arial" font-size="8.00" fill="#888888">Геокодирование</text>
</g>
<!-- nitro&#45;&gt;geo -->
<g id="edge10" class="edge">
<title>nitro&#45;&gt;geo</title>
<path fill="none" stroke="#9ca3af" stroke-width="1.3" d="M248.32,-130.17C224.31,-122.36 196.39,-112.37 172,-101.25 138.18,-85.83 101.69,-64.15 76.36,-48.22"/>
<polygon fill="#9ca3af" stroke="#9ca3af" stroke-width="1.3" points="77.39,-45.98 70.16,-44.3 74.77,-50.12 77.39,-45.98"/>
<text text-anchor="middle" x="188.5" y="-89.05" font-family="Arial" font-size="9.00" fill="#888888"> &#160;HTTP &#160;</text>
</g>
<!-- llm -->
<g id="node10" class="node">
<title>llm</title>
<path fill="#f3f4f6" stroke="#9ca3af" stroke-width="1.5" d="M216.5,-44.12C216.5,-44.12 143.5,-44.12 143.5,-44.12 137.5,-44.12 131.5,-38.12 131.5,-32.12 131.5,-32.12 131.5,-20.12 131.5,-20.12 131.5,-14.12 137.5,-8.12 143.5,-8.12 143.5,-8.12 216.5,-8.12 216.5,-8.12 222.5,-8.12 228.5,-14.12 228.5,-20.12 228.5,-20.12 228.5,-32.12 228.5,-32.12 228.5,-38.12 222.5,-44.12 216.5,-44.12"/>
<text text-anchor="start" x="160" y="-28.12" font-family="Arial" font-weight="bold" font-size="10.00">LLM API</text>
<text text-anchor="start" x="139.5" y="-19.73" font-family="Arial" font-size="8.00" fill="#888888">OpenAI&#45;совместимый</text>
</g>
<!-- nitro&#45;&gt;llm -->
<g id="edge11" class="edge">
<title>nitro&#45;&gt;llm</title>
<path fill="none" stroke="#9ca3af" stroke-width="1.3" d="M271.4,-130.07C257.9,-122.38 242.86,-112.5 231,-101.25 215.43,-86.48 201.89,-66.22 192.68,-50.61"/>
<polygon fill="#9ca3af" stroke="#9ca3af" stroke-width="1.3" points="194.62,-49.07 189,-44.23 190.37,-51.52 194.62,-49.07"/>
<text text-anchor="middle" x="260" y="-94.05" font-family="Arial" font-size="9.00" fill="#888888"> &#160;HTTP / SSE</text>
<text text-anchor="middle" x="260" y="-84.05" font-family="Arial" font-size="9.00" fill="#888888"> &#160;stream: true &#160;</text>
</g>
<!-- nitro&#45;&gt;sentry -->
<g id="edge12" class="edge">
<title>nitro&#45;&gt;sentry</title>
<path fill="none" stroke="#9ca3af" stroke-width="1.3" stroke-dasharray="5,2" d="M367.79,-134.55C405.92,-126.21 455.66,-114.43 499,-101.25 556.02,-83.91 620.37,-58.91 660.07,-42.84"/>
<polygon fill="#9ca3af" stroke="#9ca3af" stroke-width="1.3" points="661.14,-45.05 666.7,-40.15 659.29,-40.51 661.14,-45.05"/>
<text text-anchor="middle" x="571.5" y="-89.05" font-family="Arial" font-size="9.00" fill="#888888">ошибки</text>
</g>
</g>
</svg>
