<?xml version="1.0" encoding="UTF-8" standalone="no"?>
<!DOCTYPE svg PUBLIC "-//W3C//DTD SVG 1.1//EN"
 "http://www.w3.org/Graphics/SVG/1.1/DTD/svg11.dtd">
<!-- Generated by graphviz version 2.43.0 (0)
 -->
<!-- Title: Sequence_AI Pages: 1 -->
<svg width="675pt" height="466pt"
 viewBox="0.00 0.00 675.06 465.68" xmlns="http://www.w3.org/2000/svg" xmlns:xlink="http://www.w3.org/1999/xlink">
<g id="graph0" class="graph" transform="scale(1 1) rotate(0) translate(21.6 444.08)">
<title>Sequence_AI</title>
<polygon fill="white" stroke="transparent" points="-21.6,21.6 -21.6,-444.08 653.46,-444.08 653.46,21.6 -21.6,21.6"/>
<text text-anchor="start" x="46.93" y="-402.68" font-family="Arial" font-weight="bold" font-size="16.00">Диаграмма последовательности взаимодействия с AI&#45;ассистентом</text>
<!-- h_user -->
<g id="node1" class="node">
<title>h_user</title>
<polygon fill="#ede9fe" stroke="transparent" points="59.86,-351.98 59.86,-377.98 152.86,-377.98 152.86,-351.98 59.86,-351.98"/>
<text text-anchor="start" x="67.36" y="-363.18" font-family="Arial" font-weight="bold" font-size="11.00">Пользователь</text>
<polygon fill="none" stroke="#7c3aed" points="59.86,-351.98 59.86,-377.98 152.86,-377.98 152.86,-351.98 59.86,-351.98"/>
</g>
<!-- u1 -->
<g id="node6" class="node">
<title>u1</title>
<text text-anchor="middle" x="106.36" y="-293.98" font-family="Arial" font-size="10.00">u1</text>
</g>
<!-- h_user&#45;&gt;u1 -->
<g id="edge1" class="edge">
<title>h_user&#45;&gt;u1</title>
<path fill="none" stroke="#cccccc" stroke-width="1.5" stroke-dasharray="5,2" d="M106.36,-346.85C106.36,-337 106.36,-324.66 106.36,-314.78"/>
</g>
<!-- h_chat -->
<g id="node2" class="node">
<title>h_chat</title>
<polygon fill="#7c3aed" stroke="transparent" points="233.36,-341.48 233.36,-388.48 309.36,-388.48 309.36,-341.48 233.36,-341.48"/>
<text text-anchor="start" x="240.36" y="-373.18" font-family="Arial" font-weight="bold" font-size="11.00" fill="white">ChatWidget</text>
<text text-anchor="start" x="242.36" y="-350.58" font-family="Arial" font-size="8.00" fill="#dddddd">Vue&#45;компонент</text>
<polygon fill="none" stroke="#5b21b6" points="233.36,-341.48 233.36,-388.48 309.36,-388.48 309.36,-341.48 233.36,-341.48"/>
</g>
<!-- c1 -->
<g id="node7" class="node">
<title>c1</title>
<text text-anchor="middle" x="271.36" y="-293.98" font-family="Arial" font-size="10.00">c1</text>
</g>
<!-- h_chat&#45;&gt;c1 -->
<g id="edge2" class="edge">
<title>h_chat&#45;&gt;c1</title>
<path fill="none" stroke="#cccccc" stroke-width="1.5" stroke-dasharray="5,2" d="M271.36,-341.47C271.36,-332.72 271.36,-322.87 271.36,-314.71"/>
</g>
<!-- h_api -->
<g id="node3" class="node">
<title>h_api</title>
<polygon fill="#7c3aed" stroke="transparent" points="361.86,-341.48 361.86,-388.48 432.86,-388.48 432.86,-341.48 361.86,-341.48"/>
<text text-anchor="start" x="369.36" y="-373.18" font-family="Arial" font-weight="bold" font-size="11.00" fill="white">API Server</text>
<text text-anchor="start" x="378.36" y="-350.58" font-family="Arial" font-size="8.00" fill="#dddddd">/api/ai/chat</text>
<polygon fill="none" stroke="#5b21b6" points="361.86,-341.48 361.86,-388.48 432.86,-388.48 432.86,-341.48 361.86,-341.48"/>
</g>
<!-- a1 -->
<g id="node8" class="node">
<title>a1</title>
<text text-anchor="middle" x="397.36" y="-293.98" font-family="Arial" font-size="10.00">a1</text>
</g>
<!-- h_api&#45;&gt;a1 -->
<g id="edge3" class="edge">
<title>h_api&#45;&gt;a1</title>
<path fill="none" stroke="#cccccc" stroke-width="1.5" stroke-dasharray="5,2" d="M397.36,-341.47C397.36,-332.72 397.36,-322.87 397.36,-314.71"/>
</g>
<!-- h_db -->
<g id="node4" class="node">
<title>h_db</title>
<polygon fill="white" stroke="transparent" points="458.36,-341.48 458.36,-388.48 522.36,-388.48 522.36,-341.48 458.36,-341.48"/>
<text text-anchor="start" x="465.36" y="-373.18" font-family="Arial" font-weight="bold" font-size="11.00">Turso DB</text>
<text text-anchor="start" x="467.36" y="-350.58" font-family="Arial" font-size="8.00" fill="#888888">Drizzle ORM</text>
<polygon fill="none" stroke="#7c3aed" points="458.36,-341.48 458.36,-388.48 522.36,-388.48 522.36,-341.48 458.36,-341.48"/>
</g>
<!-- d1 -->
<g id="node9" class="node">
<title>d1</title>
<text text-anchor="middle" x="491.36" y="-293.98" font-family="Arial" font-size="10.00">d1</text>
</g>
<!-- h_db&#45;&gt;d1 -->
<g id="edge4" class="edge">
<title>h_db&#45;&gt;d1</title>
<path fill="none" stroke="#cccccc" stroke-width="1.5" stroke-dasharray="5,2" d="M490.7,-341.47C490.83,-332.72 490.98,-322.87 491.1,-314.71"/>
</g>
<!-- h_llm -->
<g id="node5" class="node">
<title>h_llm</title>
<polygon fill="#f5f5f5" stroke="transparent" points="536.86,-341.48 536.86,-388.48 631.86,-388.48 631.86,-341.48 536.86,-341.48"/>
<text text-anchor="start" x="562.36" y="-373.18" font-family="Arial" font-weight="bold" font-size="11.00">LLM API</text>
<text text-anchor="start" x="544.36" y="-350.58" font-family="Arial" font-size="8.00" fill="#888888">OpenAI&#45;совместимый</text>
<polygon fill="none" stroke="#888888" points="536.86,-341.48 536.86,-388.48 631.86,-388.48 631.86,-341.48 536.86,-341.48"/>
</g>
<!-- l1 -->
<g id="node10" class="node">
<title>l1</title>
<text text-anchor="middle" x="584.36" y="-293.98" font-family="Arial" font-size="10.00">l1</text>
</g>
<!-- h_llm&#45;&gt;l1 -->
<g id="edge5" class="edge">
<title>h_llm&#45;&gt;l1</title>
<path fill="none" stroke="#cccccc" stroke-width="1.5" stroke-dasharray="5,2" d="M584.36,-341.47C584.36,-332.72 584.36,-322.87 584.36,-314.71"/>
</g>
<!-- u1&#45;&gt;c1 -->
<g id="edge51" class="edge">
<title>u1&#45;&gt;c1</title>
<path fill="none" stroke="#7c3aed" stroke-width="1.5" d="M133.61,-296.48C161.99,-296.48 206.53,-296.48 237.24,-296.48"/>
<polygon fill="#7c3aed" stroke="#7c3aed" stroke-width="1.5" points="237.35,-298.93 244.35,-296.48 237.35,-294.03 237.35,-298.93"/>
<text text-anchor="middle" x="188.86" y="-322.28" font-family="Arial" font-size="9.00" fill="#333333">1. Ввод запроса:</text>
<text text-anchor="middle" x="188.86" y="-312.28" font-family="Arial" font-size="9.00" fill="#333333">«Составь маршрут</text>
<text text-anchor="middle" x="188.86" y="-302.28" font-family="Arial" font-size="9.00" fill="#333333">по Стамбулу на 3 дня»</text>
</g>
<!-- u2 -->
<g id="node11" class="node">
<title>u2</title>
<ellipse fill="#cccccc" stroke="#cccccc" cx="106.36" cy="-251.12" rx="0.36" ry="0.36"/>
</g>
<!-- u1&#45;&gt;u2 -->
<g id="edge6" class="edge">
<title>u1&#45;&gt;u2</title>
<path fill="none" stroke="#cccccc" stroke-width="1.5" stroke-dasharray="5,2" d="M106.36,-278.34C106.36,-266.76 106.36,-253.29 106.36,-251.65"/>
</g>
<!-- c2 -->
<g id="node20" class="node">
<title>c2</title>
<ellipse fill="#cccccc" stroke="#cccccc" cx="270.36" cy="-251.12" rx="0.36" ry="0.36"/>
</g>
<!-- c1&#45;&gt;c2 -->
<g id="edge15" class="edge">
<title>c1&#45;&gt;c2</title>
<path fill="none" stroke="#cccccc" stroke-width="1.5" stroke-dasharray="5,2" d="M270.97,-278.34C270.71,-266.76 270.4,-253.29 270.36,-251.65"/>
</g>
<!-- a2 -->
<g id="node29" class="node">
<title>a2</title>
<ellipse fill="#cccccc" stroke="#cccccc" cx="397.36" cy="-251.12" rx="0.36" ry="0.36"/>
</g>
<!-- a1&#45;&gt;a2 -->
<g id="edge24" class="edge">
<title>a1&#45;&gt;a2</title>
<path fill="none" stroke="#cccccc" stroke-width="1.5" stroke-dasharray="5,2" d="M397.36,-278.34C397.36,-266.76 397.36,-253.29 397.36,-251.65"/>
</g>
<!-- d2 -->
<g id="node38" class="node">
<title>d2</title>
<ellipse fill="#cccccc" stroke="#cccccc" cx="494.36" cy="-251.12" rx="0.36" ry="0.36"/>
</g>
<!-- d1&#45;&gt;d2 -->
<g id="edge33" class="edge">
<title>d1&#45;&gt;d2</title>
<path fill="none" stroke="#cccccc" stroke-width="1.5" stroke-dasharray="5,2" d="M492.53,-278.34C493.32,-266.76 494.24,-253.29 494.35,-251.65"/>
</g>
<!-- l2 -->
<g id="node47" class="node">
<title>l2</title>
<ellipse fill="#cccccc" stroke="#cccccc" cx="583.36" cy="-251.12" rx="0.36" ry="0.36"/>
</g>
<!-- l1&#45;&gt;l2 -->
<g id="edge42" class="edge">
<title>l1&#45;&gt;l2</title>
<path fill="none" stroke="#cccccc" stroke-width="1.5" stroke-dasharray="5,2" d="M583.97,-278.34C583.71,-266.76 583.4,-253.29 583.36,-251.65"/>
</g>
<!-- u3 -->
<g id="node12" class="node">
<title>u3</title>
<ellipse fill="#cccccc" stroke="#cccccc" cx="106.36" cy="-223.4" rx="0.36" ry="0.36"/>
</g>
<!-- u2&#45;&gt;u3 -->
<g id="edge7" class="edge">
<title>u2&#45;&gt;u3</title>
<path fill="none" stroke="#cccccc" stroke-width="1.5" stroke-dasharray="5,2" d="M106.36,-250.68C106.36,-249.15 106.36,-225.32 106.36,-223.83"/>
</g>
<!-- u4 -->
<g id="node13" class="node">
<title>u4</title>
<ellipse fill="#cccccc" stroke="#cccccc" cx="106.36" cy="-195.68" rx="0.36" ry="0.36"/>
</g>
<!-- u3&#45;&gt;u4 -->
<g id="edge8" class="edge">
<title>u3&#45;&gt;u4</title>
<path fill="none" stroke="#cccccc" stroke-width="1.5" stroke-dasharray="5,2" d="M106.36,-222.96C106.36,-221.43 106.36,-197.6 106.36,-196.11"/>
</g>
<!-- u5 -->
<g id="node14" class="node">
<title>u5</title>
<ellipse fill="#cccccc" stroke="#cccccc" cx="106.36" cy="-167.96" rx="0.36" ry="0.36"/>
</g>
<!-- u4&#45;&gt;u5 -->
<g id="edge9" class="edge">
<title>u4&#45;&gt;u5</title>
<path fill="none" stroke="#cccccc" stroke-width="1.5" stroke-dasharray="5,2" d="M106.36,-195.24C106.36,-193.71 106.36,-169.88 106.36,-168.39"/>
</g>
<!-- u6 -->
<g id="node15" class="node">
<title>u6</title>
<ellipse fill="#cccccc" stroke="#cccccc" cx="106.36" cy="-140.24" rx="0.36" ry="0.36"/>
</g>
<!-- u5&#45;&gt;u6 -->
<g id="edge10" class="edge">
<title>u5&#45;&gt;u6</title>
<path fill="none" stroke="#cccccc" stroke-width="1.5" stroke-dasharray="5,2" d="M106.36,-167.52C106.36,-165.99 106.36,-142.16 106.36,-140.67"/>
</g>
<!-- u7 -->
<g id="node16" class="node">
<title>u7</title>
<ellipse fill="#cccccc" stroke="#cccccc" cx="106.36" cy="-112.52" rx="0.36" ry="0.36"/>
</g>
<!-- u6&#45;&gt;u7 -->
<g id="edge11" class="edge">
<title>u6&#45;&gt;u7</title>
<path fill="none" stroke="#cccccc" stroke-width="1.5" stroke-dasharray="5,2" d="M106.36,-139.8C106.36,-138.27 106.36,-114.44 106.36,-112.95"/>
</g>
<!-- u8 -->
<g id="node17" class="node">
<title>u8</title>
<ellipse fill="#cccccc" stroke="#cccccc" cx="109.36" cy="-84.8" rx="0.36" ry="0.36"/>
</g>
<!-- u7&#45;&gt;u8 -->
<g id="edge12" class="edge">
<title>u7&#45;&gt;u8</title>
<path fill="none" stroke="#cccccc" stroke-width="1.5" stroke-dasharray="5,2" d="M106.37,-112.08C106.54,-110.55 109.19,-86.72 109.35,-85.23"/>
</g>
<!-- u9 -->
<g id="node18" class="node">
<title>u9</title>
<ellipse fill="#cccccc" stroke="#cccccc" cx="119.36" cy="-28.08" rx="0.36" ry="0.36"/>
</g>
<!-- u8&#45;&gt;u9 -->
<g id="edge13" class="edge">
<title>u8&#45;&gt;u9</title>
<path fill="none" stroke="#cccccc" stroke-width="1.5" stroke-dasharray="5,2" d="M109.39,-84.28C109.96,-81.1 118.78,-31.68 119.33,-28.59"/>
</g>
<!-- u10 -->
<g id="node19" class="node">
<title>u10</title>
<ellipse fill="#cccccc" stroke="#cccccc" cx="135.36" cy="-0.36" rx="0.36" ry="0.36"/>
</g>
<!-- u9&#45;&gt;u10 -->
<g id="edge14" class="edge">
<title>u9&#45;&gt;u10</title>
<path fill="none" stroke="#cccccc" stroke-width="1.5" stroke-dasharray="5,2" d="M119.41,-27.64C120.32,-26.11 134.44,-2.28 135.32,-0.79"/>
</g>
<!-- c3 -->
<g id="node21" class="node">
<title>c3</title>
<ellipse fill="#cccccc" stroke="#cccccc" cx="270.36" cy="-223.4" rx="0.36" ry="0.36"/>
</g>
<!-- c2&#45;&gt;c3 -->
<g id="edge16" class="edge">
<title>c2&#45;&gt;c3</title>
<path fill="none" stroke="#cccccc" stroke-width="1.5" stroke-dasharray="5,2" d="M270.36,-250.68C270.36,-249.15 270.36,-225.32 270.36,-223.83"/>
</g>
<!-- c2&#45;&gt;a2 -->
<g id="edge52" class="edge">
<title>c2&#45;&gt;a2</title>
<path fill="none" stroke="#7c3aed" stroke-width="1.5" d="M270.72,-251.12C276.99,-251.12 362.37,-251.12 389.29,-251.12"/>
<polygon fill="#7c3aed" stroke="#7c3aed" stroke-width="1.5" points="389.6,-253.57 396.6,-251.12 389.6,-248.67 389.6,-253.57"/>
<text text-anchor="middle" x="333.86" y="-266.92" font-family="Arial" font-size="9.00" fill="#333333">2. POST /api/ai/chat</text>
<text text-anchor="middle" x="333.86" y="-256.92" font-family="Arial" font-size="9.00" fill="#333333">{ message, conversationId }</text>
</g>
<!-- c4 -->
<g id="node22" class="node">
<title>c4</title>
<ellipse fill="#cccccc" stroke="#cccccc" cx="270.36" cy="-195.68" rx="0.36" ry="0.36"/>
</g>
<!-- c3&#45;&gt;c4 -->
<g id="edge17" class="edge">
<title>c3&#45;&gt;c4</title>
<path fill="none" stroke="#cccccc" stroke-width="1.5" stroke-dasharray="5,2" d="M270.36,-222.96C270.36,-221.43 270.36,-197.6 270.36,-196.11"/>
</g>
<!-- c5 -->
<g id="node23" class="node">
<title>c5</title>
<ellipse fill="#cccccc" stroke="#cccccc" cx="270.36" cy="-167.96" rx="0.36" ry="0.36"/>
</g>
<!-- c4&#45;&gt;c5 -->
<g id="edge18" class="edge">
<title>c4&#45;&gt;c5</title>
<path fill="none" stroke="#cccccc" stroke-width="1.5" stroke-dasharray="5,2" d="M270.36,-195.24C270.36,-193.71 270.36,-169.88 270.36,-168.39"/>
</g>
<!-- c6 -->
<g id="node24" class="node">
<title>c6</title>
<ellipse fill="#cccccc" stroke="#cccccc" cx="270.36" cy="-140.24" rx="0.36" ry="0.36"/>
</g>
<!-- c5&#45;&gt;c6 -->
<g id="edge19" class="edge">
<title>c5&#45;&gt;c6</title>
<path fill="none" stroke="#cccccc" stroke-width="1.5" stroke-dasharray="5,2" d="M270.36,-167.52C270.36,-165.99 270.36,-142.16 270.36,-140.67"/>
</g>
<!-- c7 -->
<g id="node25" class="node">
<title>c7</title>
<ellipse fill="#cccccc" stroke="#cccccc" cx="270.36" cy="-112.52" rx="0.36" ry="0.36"/>
</g>
<!-- c6&#45;&gt;c7 -->
<g id="edge20" class="edge">
<title>c6&#45;&gt;c7</title>
<path fill="none" stroke="#cccccc" stroke-width="1.5" stroke-dasharray="5,2" d="M270.36,-139.8C270.36,-138.27 270.36,-114.44 270.36,-112.95"/>
</g>
<!-- c8 -->
<g id="node26" class="node">
<title>c8</title>
<ellipse fill="#cccccc" stroke="#cccccc" cx="270.36" cy="-84.8" rx="0.36" ry="0.36"/>
</g>
<!-- c7&#45;&gt;c8 -->
<g id="edge21" class="edge">
<title>c7&#45;&gt;c8</title>
<path fill="none" stroke="#cccccc" stroke-width="1.5" stroke-dasharray="5,2" d="M270.36,-112.08C270.36,-110.55 270.36,-86.72 270.36,-85.23"/>
</g>
<!-- c9 -->
<g id="node27" class="node">
<title>c9</title>
<ellipse fill="#cccccc" stroke="#cccccc" cx="234.36" cy="-28.08" rx="0.36" ry="0.36"/>
</g>
<!-- c8&#45;&gt;c9 -->
<g id="edge22" class="edge">
<title>c8&#45;&gt;c9</title>
<path fill="none" stroke="#cccccc" stroke-width="1.5" stroke-dasharray="5,2" d="M270.26,-84.28C268.21,-81.1 236.44,-31.68 234.46,-28.59"/>
</g>
<!-- c10 -->
<g id="node28" class="node">
<title>c10</title>
<ellipse fill="#cccccc" stroke="#cccccc" cx="0.36" cy="-0.36" rx="0.36" ry="0.36"/>
</g>
<!-- c9&#45;&gt;c10 -->
<g id="edge23" class="edge">
<title>c9&#45;&gt;c10</title>
<path fill="none" stroke="#cccccc" stroke-width="1.5" stroke-dasharray="5,2" d="M234.32,-27.72C230.77,-27.31 7.5,-1.54 0.53,-0.74"/>
</g>
<!-- c10&#45;&gt;u10 -->
<g id="edge60" class="edge">
<title>c10&#45;&gt;u10</title>
<path fill="none" stroke="#7c3aed" stroke-width="1.5" stroke-dasharray="5,2" d="M0.75,-0.36C7.49,-0.36 100.34,-0.36 127.78,-0.36"/>
<polygon fill="#7c3aed" stroke="#7c3aed" stroke-width="1.5" points="128,-2.81 135,-0.36 128,2.09 128,-2.81"/>
<text text-anchor="middle" x="67.86" y="-16.16" font-family="Arial" font-size="9.00" fill="#333333">10. Отображение маршрута:</text>
<text text-anchor="middle" x="67.86" y="-6.16" font-family="Arial" font-size="9.00" fill="#333333">точки на карте + описание</text>
</g>
<!-- a3 -->
<g id="node30" class="node">
<title>a3</title>
<ellipse fill="#cccccc" stroke="#cccccc" cx="391.36" cy="-223.4" rx="0.36" ry="0.36"/>
</g>
<!-- a2&#45;&gt;a3 -->
<g id="edge25" class="edge">
<title>a2&#45;&gt;a3</title>
<path fill="none" stroke="#cccccc" stroke-width="1.5" stroke-dasharray="5,2" d="M397.34,-250.68C397,-249.15 391.71,-225.32 391.38,-223.83"/>
</g>
<!-- a4 -->
<g id="node31" class="node">
<title>a4</title>
<ellipse fill="#cccccc" stroke="#cccccc" cx="386.36" cy="-195.68" rx="0.36" ry="0.36"/>
</g>
<!-- a3&#45;&gt;a4 -->
<g id="edge26" class="edge">
<title>a3&#45;&gt;a4</title>
<path fill="none" stroke="#cccccc" stroke-width="1.5" stroke-dasharray="5,2" d="M391.35,-222.96C391.06,-221.43 386.65,-197.6 386.37,-196.11"/>
</g>
<!-- d3 -->
<g id="node39" class="node">
<title>d3</title>
<ellipse fill="#cccccc" stroke="#cccccc" cx="495.36" cy="-223.4" rx="0.36" ry="0.36"/>
</g>
<!-- a3&#45;&gt;d3 -->
<g id="edge53" class="edge">
<title>a3&#45;&gt;d3</title>
<path fill="none" stroke="#7c3aed" stroke-width="1.5" d="M392.02,-223.4C399.31,-223.4 464.57,-223.4 487.46,-223.4"/>
<polygon fill="#7c3aed" stroke="#7c3aed" stroke-width="1.5" points="487.76,-225.85 494.76,-223.4 487.76,-220.95 487.76,-225.85"/>
<text text-anchor="middle" x="443.36" y="-239.2" font-family="Arial" font-size="9.00" fill="#333333">3. INSERT aiMessage</text>
<text text-anchor="middle" x="443.36" y="-229.2" font-family="Arial" font-size="9.00" fill="#333333">(role: &#39;user&#39;)</text>
</g>
<!-- a5 -->
<g id="node32" class="node">
<title>a5</title>
<ellipse fill="#cccccc" stroke="#cccccc" cx="405.36" cy="-167.96" rx="0.36" ry="0.36"/>
</g>
<!-- a4&#45;&gt;a5 -->
<g id="edge27" class="edge">
<title>a4&#45;&gt;a5</title>
<path fill="none" stroke="#cccccc" stroke-width="1.5" stroke-dasharray="5,2" d="M386.41,-195.24C387.49,-193.71 404.26,-169.88 405.31,-168.39"/>
</g>
<!-- d4 -->
<g id="node40" class="node">
<title>d4</title>
<ellipse fill="#cccccc" stroke="#cccccc" cx="497.36" cy="-195.68" rx="0.36" ry="0.36"/>
</g>
<!-- a4&#45;&gt;d4 -->
<g id="edge54" class="edge">
<title>a4&#45;&gt;d4</title>
<path fill="none" stroke="#7c3aed" stroke-width="1.5" d="M387.07,-195.68C394.92,-195.68 465.76,-195.68 489.58,-195.68"/>
<polygon fill="#7c3aed" stroke="#7c3aed" stroke-width="1.5" points="489.72,-198.13 496.72,-195.68 489.72,-193.23 489.72,-198.13"/>
<text text-anchor="middle" x="441.86" y="-221.48" font-family="Arial" font-size="9.00" fill="#333333">4. SELECT aiMessages</text>
<text text-anchor="middle" x="441.86" y="-211.48" font-family="Arial" font-size="9.00" fill="#333333">по conversationId</text>
<text text-anchor="middle" x="441.86" y="-201.48" font-family="Arial" font-size="9.00" fill="#333333">(история диалога)</text>
</g>
<!-- a6 -->
<g id="node33" class="node">
<title>a6</title>
<ellipse fill="#cccccc" stroke="#cccccc" cx="405.36" cy="-140.24" rx="0.36" ry="0.36"/>
</g>
<!-- a5&#45;&gt;a6 -->
<g id="edge28" class="edge">
<title>a5&#45;&gt;a6</title>
<path fill="none" stroke="#cccccc" stroke-width="1.5" stroke-dasharray="5,2" d="M405.36,-167.52C405.36,-165.99 405.36,-142.16 405.36,-140.67"/>
</g>
<!-- a7 -->
<g id="node34" class="node">
<title>a7</title>
<ellipse fill="#cccccc" stroke="#cccccc" cx="407.36" cy="-112.52" rx="0.36" ry="0.36"/>
</g>
<!-- a6&#45;&gt;a7 -->
<g id="edge29" class="edge">
<title>a6&#45;&gt;a7</title>
<path fill="none" stroke="#cccccc" stroke-width="1.5" stroke-dasharray="5,2" d="M405.37,-139.8C405.48,-138.27 407.24,-114.44 407.35,-112.95"/>
</g>
<!-- l6 -->
<g id="node51" class="node">
<title>l6</title>
<ellipse fill="#cccccc" stroke="#cccccc" cx="539.36" cy="-140.24" rx="0.36" ry="0.36"/>
</g>
<!-- a6&#45;&gt;l6 -->
<g id="edge56" class="edge">
<title>a6&#45;&gt;l6</title>
<path fill="none" stroke="#7c3aed" stroke-width="1.5" d="M405.74,-140.24C412.44,-140.24 504.6,-140.24 531.83,-140.24"/>
<polygon fill="#7c3aed" stroke="#7c3aed" stroke-width="1.5" points="532,-142.69 539,-140.24 532,-137.79 532,-142.69"/>
<text text-anchor="middle" x="472.36" y="-166.04" font-family="Arial" font-size="9.00" fill="#333333">6. POST /v1/chat/completions</text>
<text text-anchor="middle" x="472.36" y="-156.04" font-family="Arial" font-size="9.00" fill="#333333">{ system prompt,</text>
<text text-anchor="middle" x="472.36" y="-146.04" font-family="Arial" font-size="9.00" fill="#333333">messages[], stream: true }</text>
</g>
<!-- a8 -->
<g id="node35" class="node">
<title>a8</title>
<ellipse fill="#cccccc" stroke="#cccccc" cx="181.36" cy="-84.8" rx="0.36" ry="0.36"/>
</g>
<!-- a7&#45;&gt;a8 -->
<g id="edge30" class="edge">
<title>a7&#45;&gt;a8</title>
<path fill="none" stroke="#cccccc" stroke-width="1.5" stroke-dasharray="5,2" d="M407.2,-112.14C400.46,-111.34 188.15,-85.97 181.52,-85.18"/>
</g>
<!-- a8&#45;&gt;c8 -->
<g id="edge58" class="edge">
<title>a8&#45;&gt;c8</title>
<path fill="none" stroke="#c53030" stroke-width="1.5" d="M181.93,-84.8C188.08,-84.8 242.5,-84.8 262.78,-84.8"/>
<polygon fill="#c53030" stroke="#c53030" stroke-width="1.5" points="262.84,-87.25 269.84,-84.8 262.84,-82.35 262.84,-87.25"/>
<text text-anchor="middle" x="225.86" y="-100.6" font-family="Arial" font-size="9.00" fill="#c53030">8. SSE: потоковая</text>
<text text-anchor="middle" x="225.86" y="-90.6" font-family="Arial" font-size="9.00" fill="#c53030">передача токенов</text>
</g>
<!-- a9 -->
<g id="node36" class="node">
<title>a9</title>
<ellipse fill="#cccccc" stroke="#cccccc" cx="153.36" cy="-28.08" rx="0.36" ry="0.36"/>
</g>
<!-- a8&#45;&gt;a9 -->
<g id="edge31" class="edge">
<title>a8&#45;&gt;a9</title>
<path fill="none" stroke="#cccccc" stroke-width="1.5" stroke-dasharray="5,2" d="M181.28,-84.28C179.69,-81.1 154.98,-31.68 153.44,-28.59"/>
</g>
<!-- a10 -->
<g id="node37" class="node">
<title>a10</title>
<ellipse fill="#cccccc" stroke="#cccccc" cx="153.36" cy="-0.36" rx="0.36" ry="0.36"/>
</g>
<!-- a9&#45;&gt;a10 -->
<g id="edge32" class="edge">
<title>a9&#45;&gt;a10</title>
<path fill="none" stroke="#cccccc" stroke-width="1.5" stroke-dasharray="5,2" d="M153.36,-27.64C153.36,-26.11 153.36,-2.28 153.36,-0.79"/>
</g>
<!-- d9 -->
<g id="node45" class="node">
<title>d9</title>
<ellipse fill="#cccccc" stroke="#cccccc" cx="271.36" cy="-28.08" rx="0.36" ry="0.36"/>
</g>
<!-- a9&#45;&gt;d9 -->
<g id="edge59" class="edge">
<title>a9&#45;&gt;d9</title>
<path fill="none" stroke="#7c3aed" stroke-width="1.5" d="M154.02,-28.23C160.5,-29.7 212.36,-41.44 212.36,-41.44 212.36,-41.44 247.92,-33.39 263.83,-29.79"/>
<polygon fill="#7c3aed" stroke="#7c3aed" stroke-width="1.5" points="264.41,-32.17 270.7,-28.23 263.33,-27.39 264.41,-32.17"/>
<text text-anchor="middle" x="212.36" y="-64.24" font-family="Arial" font-size="9.00" fill="#333333">9. INSERT aiMessage</text>
<text text-anchor="middle" x="212.36" y="-54.24" font-family="Arial" font-size="9.00" fill="#333333">(role: &#39;assistant&#39;,</text>
<text text-anchor="middle" x="212.36" y="-44.24" font-family="Arial" font-size="9.00" fill="#333333">full content)</text>
</g>
<!-- d2&#45;&gt;d3 -->
<g id="edge34" class="edge">
<title>d2&#45;&gt;d3</title>
<path fill="none" stroke="#cccccc" stroke-width="1.5" stroke-dasharray="5,2" d="M494.36,-250.68C494.42,-249.15 495.3,-225.32 495.36,-223.83"/>
</g>
<!-- d3&#45;&gt;d4 -->
<g id="edge35" class="edge">
<title>d3&#45;&gt;d4</title>
<path fill="none" stroke="#cccccc" stroke-width="1.5" stroke-dasharray="5,2" d="M495.37,-222.96C495.48,-221.43 497.24,-197.6 497.35,-196.11"/>
</g>
<!-- d5 -->
<g id="node41" class="node">
<title>d5</title>
<ellipse fill="#cccccc" stroke="#cccccc" cx="294.36" cy="-167.96" rx="0.36" ry="0.36"/>
</g>
<!-- d4&#45;&gt;d5 -->
<g id="edge36" class="edge">
<title>d4&#45;&gt;d5</title>
<path fill="none" stroke="#cccccc" stroke-width="1.5" stroke-dasharray="5,2" d="M497.21,-195.3C491.16,-194.5 300.46,-169.13 294.5,-168.34"/>
</g>
<!-- d5&#45;&gt;a5 -->
<g id="edge55" class="edge">
<title>d5&#45;&gt;a5</title>
<path fill="none" stroke="#7c3aed" stroke-width="1.5" stroke-dasharray="5,2" d="M295.07,-167.96C302.92,-167.96 373.76,-167.96 397.58,-167.96"/>
<polygon fill="#7c3aed" stroke="#7c3aed" stroke-width="1.5" points="397.72,-170.41 404.72,-167.96 397.72,-165.51 397.72,-170.41"/>
<text text-anchor="middle" x="349.86" y="-183.76" font-family="Arial" font-size="9.00" fill="#333333">5. Массив предыдущих</text>
<text text-anchor="middle" x="349.86" y="-173.76" font-family="Arial" font-size="9.00" fill="#333333">сообщений диалога</text>
</g>
<!-- d6 -->
<g id="node42" class="node">
<title>d6</title>
<ellipse fill="#cccccc" stroke="#cccccc" cx="291.36" cy="-140.24" rx="0.36" ry="0.36"/>
</g>
<!-- d5&#45;&gt;d6 -->
<g id="edge37" class="edge">
<title>d5&#45;&gt;d6</title>
<path fill="none" stroke="#cccccc" stroke-width="1.5" stroke-dasharray="5,2" d="M294.35,-167.52C294.18,-165.99 291.53,-142.16 291.37,-140.67"/>
</g>
<!-- d7 -->
<g id="node43" class="node">
<title>d7</title>
<ellipse fill="#cccccc" stroke="#cccccc" cx="291.36" cy="-112.52" rx="0.36" ry="0.36"/>
</g>
<!-- d6&#45;&gt;d7 -->
<g id="edge38" class="edge">
<title>d6&#45;&gt;d7</title>
<path fill="none" stroke="#cccccc" stroke-width="1.5" stroke-dasharray="5,2" d="M291.36,-139.8C291.36,-138.27 291.36,-114.44 291.36,-112.95"/>
</g>
<!-- d8 -->
<g id="node44" class="node">
<title>d8</title>
<ellipse fill="#cccccc" stroke="#cccccc" cx="291.36" cy="-84.8" rx="0.36" ry="0.36"/>
</g>
<!-- d7&#45;&gt;d8 -->
<g id="edge39" class="edge">
<title>d7&#45;&gt;d8</title>
<path fill="none" stroke="#cccccc" stroke-width="1.5" stroke-dasharray="5,2" d="M291.36,-112.08C291.36,-110.55 291.36,-86.72 291.36,-85.23"/>
</g>
<!-- d8&#45;&gt;d9 -->
<g id="edge40" class="edge">
<title>d8&#45;&gt;d9</title>
<path fill="none" stroke="#cccccc" stroke-width="1.5" stroke-dasharray="5,2" d="M291.3,-84.28C290.17,-81.1 272.52,-31.68 271.41,-28.59"/>
</g>
<!-- d10 -->
<g id="node46" class="node">
<title>d10</title>
<ellipse fill="#cccccc" stroke="#cccccc" cx="271.36" cy="-0.36" rx="0.36" ry="0.36"/>
</g>
<!-- d9&#45;&gt;d10 -->
<g id="edge41" class="edge">
<title>d9&#45;&gt;d10</title>
<path fill="none" stroke="#cccccc" stroke-width="1.5" stroke-dasharray="5,2" d="M271.36,-27.64C271.36,-26.11 271.36,-2.28 271.36,-0.79"/>
</g>
<!-- l3 -->
<g id="node48" class="node">
<title>l3</title>
<ellipse fill="#cccccc" stroke="#cccccc" cx="559.36" cy="-223.4" rx="0.36" ry="0.36"/>
</g>
<!-- l2&#45;&gt;l3 -->
<g id="edge43" class="edge">
<title>l2&#45;&gt;l3</title>
<path fill="none" stroke="#cccccc" stroke-width="1.5" stroke-dasharray="5,2" d="M583.29,-250.68C581.93,-249.15 560.75,-225.32 559.42,-223.83"/>
</g>
<!-- l4 -->
<g id="node49" class="node">
<title>l4</title>
<ellipse fill="#cccccc" stroke="#cccccc" cx="549.36" cy="-195.68" rx="0.36" ry="0.36"/>
</g>
<!-- l3&#45;&gt;l4 -->
<g id="edge44" class="edge">
<title>l3&#45;&gt;l4</title>
<path fill="none" stroke="#cccccc" stroke-width="1.5" stroke-dasharray="5,2" d="M559.33,-222.96C558.76,-221.43 549.94,-197.6 549.39,-196.11"/>
</g>
<!-- l5 -->
<g id="node50" class="node">
<title>l5</title>
<ellipse fill="#cccccc" stroke="#cccccc" cx="545.36" cy="-167.96" rx="0.36" ry="0.36"/>
</g>
<!-- l4&#45;&gt;l5 -->
<g id="edge45" class="edge">
<title>l4&#45;&gt;l5</title>
<path fill="none" stroke="#cccccc" stroke-width="1.5" stroke-dasharray="5,2" d="M549.35,-195.24C549.12,-193.71 545.59,-169.88 545.37,-168.39"/>
</g>
<!-- l5&#45;&gt;l6 -->
<g id="edge46" class="edge">
<title>l5&#45;&gt;l6</title>
<path fill="none" stroke="#cccccc" stroke-width="1.5" stroke-dasharray="5,2" d="M545.34,-167.52C545,-165.99 539.71,-142.16 539.38,-140.67"/>
</g>
<!-- l7 -->
<g id="node52" class="node">
<title>l7</title>
<ellipse fill="#cccccc" stroke="#cccccc" cx="311.36" cy="-112.52" rx="0.36" ry="0.36"/>
</g>
<!-- l6&#45;&gt;l7 -->
<g id="edge47" class="edge">
<title>l6&#45;&gt;l7</title>
<path fill="none" stroke="#cccccc" stroke-width="1.5" stroke-dasharray="5,2" d="M539.19,-139.86C532.4,-139.06 318.21,-113.69 311.52,-112.9"/>
</g>
<!-- l7&#45;&gt;a7 -->
<g id="edge57" class="edge">
<title>l7&#45;&gt;a7</title>
<path fill="none" stroke="#c53030" stroke-width="1.5" d="M311.97,-112.52C318.67,-112.52 378.39,-112.52 399.78,-112.52"/>
<polygon fill="#c53030" stroke="#c53030" stroke-width="1.5" points="399.8,-114.97 406.8,-112.52 399.8,-110.07 399.8,-114.97"/>
<text text-anchor="middle" x="359.36" y="-138.32" font-family="Arial" font-size="9.00" fill="#c53030">7. SSE: data: {delta}</text>
<text text-anchor="middle" x="359.36" y="-128.32" font-family="Arial" font-size="9.00" fill="#c53030">data: {delta}</text>
<text text-anchor="middle" x="359.36" y="-118.32" font-family="Arial" font-size="9.00" fill="#c53030">...</text>
</g>
<!-- l8 -->
<g id="node53" class="node">
<title>l8</title>
<ellipse fill="#cccccc" stroke="#cccccc" cx="312.36" cy="-84.8" rx="0.36" ry="0.36"/>
</g>
<!-- l7&#45;&gt;l8 -->
<g id="edge48" class="edge">
<title>l7&#45;&gt;l8</title>
<path fill="none" stroke="#cccccc" stroke-width="1.5" stroke-dasharray="5,2" d="M311.36,-112.08C311.42,-110.55 312.3,-86.72 312.36,-85.23"/>
</g>
<!-- l9 -->
<g id="node54" class="node">
<title>l9</title>
<ellipse fill="#cccccc" stroke="#cccccc" cx="312.36" cy="-28.08" rx="0.36" ry="0.36"/>
</g>
<!-- l8&#45;&gt;l9 -->
<g id="edge49" class="edge">
<title>l8&#45;&gt;l9</title>
<path fill="none" stroke="#cccccc" stroke-width="1.5" stroke-dasharray="5,2" d="M312.36,-84.28C312.36,-81.1 312.36,-31.68 312.36,-28.59"/>
</g>
<!-- l10 -->
<g id="node55" class="node">
<title>l10</title>
<ellipse fill="#cccccc" stroke="#cccccc" cx="312.36" cy="-0.36" rx="0.36" ry="0.36"/>
</g>
<!-- l9&#45;&gt;l10 -->
<g id="edge50" class="edge">
<title>l9&#45;&gt;l10</title>
<path fill="none" stroke="#cccccc" stroke-width="1.5" stroke-dasharray="5,2" d="M312.36,-27.64C312.36,-26.11 312.36,-2.28 312.36,-0.79"/>
</g>
</g>
</svg>
