<?xml version="1.0" encoding="UTF-8" standalone="no"?>
<!DOCTYPE svg PUBLIC "-//W3C//DTD SVG 1.1//EN"
 "http://www.w3.org/Graphics/SVG/1.1/DTD/svg11.dtd">
<!-- Generated by graphviz version 2.43.0 (0)
 -->
<!-- Title: PWA_ServiceWorker Pages: 1 -->
<svg width="974pt" height="1313pt"
 viewBox="0.00 0.00 973.60 1312.60" xmlns="http://www.w3.org/2000/svg" xmlns:xlink="http://www.w3.org/1999/xlink">
<g id="graph0" class="graph" transform="scale(1 1) rotate(0) translate(28.8 1283.8)">
<title>PWA_ServiceWorker</title>
<polygon fill="white" stroke="transparent" points="-28.8,28.8 -28.8,-1283.8 944.8,-1283.8 944.8,28.8 -28.8,28.8"/>
<text text-anchor="start" x="155" y="-1235.2" font-family="Arial" font-weight="bold" font-size="16.00">Диаграмма жизненного цикла Service Worker и стратегий кэширования PWA</text>
<g id="clust1" class="cluster">
<title>cluster_install</title>
<path fill="#f5f3ff" stroke="#7c3aed" stroke-width="1.5" stroke-dasharray="5,2" d="M349,-878C349,-878 479,-878 479,-878 485,-878 491,-884 491,-890 491,-890 491,-1086 491,-1086 491,-1092 485,-1098 479,-1098 479,-1098 349,-1098 349,-1098 343,-1098 337,-1092 337,-1086 337,-1086 337,-890 337,-890 337,-884 343,-878 349,-878"/>
<text text-anchor="start" x="376" y="-1084.6" font-family="Arial" font-weight="bold" font-size="13.00" fill="#5b21b6">Фаза Install</text>
</g>
<g id="clust2" class="cluster">
<title>cluster_activate</title>
<path fill="#f5f3ff" stroke="#7c3aed" stroke-width="1.5" stroke-dasharray="5,2" d="M345,-639C345,-639 483,-639 483,-639 489,-639 495,-645 495,-651 495,-651 495,-847 495,-847 495,-853 489,-859 483,-859 483,-859 345,-859 345,-859 339,-859 333,-853 333,-847 333,-847 333,-651 333,-651 333,-645 339,-639 345,-639"/>
<text text-anchor="start" x="369.5" y="-845.6" font-family="Arial" font-weight="bold" font-size="13.00" fill="#5b21b6">Фаза Activate</text>
</g>
<g id="clust3" class="cluster">
<title>cluster_swr</title>
<path fill="#7c3aed" stroke="#7c3aed" stroke-width="2" d="M271,-164C271,-164 391,-164 391,-164 397,-164 403,-170 403,-176 403,-176 403,-423 403,-423 403,-429 397,-435 391,-435 391,-435 271,-435 271,-435 265,-435 259,-429 259,-423 259,-423 259,-176 259,-176 259,-170 265,-164 271,-164"/>
<text text-anchor="start" x="267" y="-422.4" font-family="Arial" font-weight="bold" font-size="12.00" fill="#5b21b6">Stale&#45;While&#45;Revalidate</text>
<text text-anchor="start" x="293.5" y="-412.8" font-family="Arial" font-size="9.00" fill="#888888">CSS, JS, шрифты</text>
</g>
<g id="clust4" class="cluster">
<title>cluster_cf</title>
<path fill="#7c3aed" stroke="#7c3aed" stroke-width="2" d="M679,-91C679,-91 896,-91 896,-91 902,-91 908,-97 908,-103 908,-103 908,-315 908,-315 908,-321 902,-327 896,-327 896,-327 679,-327 679,-327 673,-327 667,-321 667,-315 667,-315 667,-103 667,-103 667,-97 673,-91 679,-91"/>
<text text-anchor="start" x="754" y="-314.4" font-family="Arial" font-weight="bold" font-size="12.00" fill="#5b21b6">Cache&#45;First</text>
<text text-anchor="start" x="745.5" y="-304.8" font-family="Arial" font-size="9.00" fill="#888888">Изображения из S3</text>
</g>
<g id="clust5" class="cluster">
<title>cluster_nf</title>
<path fill="#7c3aed" stroke="#7c3aed" stroke-width="2" d="M20,-91C20,-91 239,-91 239,-91 245,-91 251,-97 251,-103 251,-103 251,-315 251,-315 251,-321 245,-327 239,-327 239,-327 20,-327 20,-327 14,-327 8,-321 8,-315 8,-315 8,-103 8,-103 8,-97 14,-91 20,-91"/>
<text text-anchor="start" x="91" y="-314.4" font-family="Arial" font-weight="bold" font-size="12.00" fill="#5b21b6">Network&#45;First</text>
<text text-anchor="start" x="91" y="-304.8" font-family="Arial" font-size="9.00" fill="#888888">API&#45;запросы /api/*</text>
</g>
<g id="clust6" class="cluster">
<title>cluster_nav</title>
<path fill="#7c3aed" stroke="#7c3aed" stroke-width="2" d="M423,-164C423,-164 642,-164 642,-164 648,-164 654,-170 654,-176 654,-176 654,-315 654,-315 654,-321 648,-327 642,-327 642,-327 423,-327 423,-327 417,-327 411,-321 411,-315 411,-315 411,-176 411,-176 411,-170 417,-164 423,-164"/>
<text text-anchor="start" x="443.5" y="-314.4" font-family="Arial" font-weight="bold" font-size="12.00" fill="#5b21b6">Network&#45;First + Offline Fallback</text>
<text text-anchor="start" x="496.5" y="-304.8" font-family="Arial" font-size="9.00" fill="#888888">HTML&#45;навигация</text>
</g>
<!-- start -->
<g id="node1" class="node">
<title>start</title>
<ellipse fill="#7c3aed" stroke="#5b21b6" cx="414" cy="-1210" rx="11" ry="11"/>
</g>
<!-- reg -->
<g id="node2" class="node">
<title>reg</title>
<path fill="#ede9fe" stroke="#7c3aed" stroke-width="2" d="M459.5,-1162C459.5,-1162 368.5,-1162 368.5,-1162 362.5,-1162 356.5,-1156 356.5,-1150 356.5,-1150 356.5,-1137 356.5,-1137 356.5,-1131 362.5,-1125 368.5,-1125 368.5,-1125 459.5,-1125 459.5,-1125 465.5,-1125 471.5,-1131 471.5,-1137 471.5,-1137 471.5,-1150 471.5,-1150 471.5,-1156 465.5,-1162 459.5,-1162"/>
<text text-anchor="start" x="369" y="-1150.2" font-family="Arial" font-weight="bold" font-size="11.00">Регистрация SW</text>
<text text-anchor="start" x="364.5" y="-1140.8" font-family="Arial" font-size="9.00">navigator.serviceWorker</text>
<text text-anchor="start" x="382" y="-1131.8" font-family="Arial" font-size="9.00">.register(&#39;/sw.js&#39;)</text>
</g>
<!-- start&#45;&gt;reg -->
<g id="edge15" class="edge">
<title>start&#45;&gt;reg</title>
<path fill="none" stroke="#7c3aed" stroke-width="1.5" d="M414,-1198.92C414,-1191 414,-1179.61 414,-1169.29"/>
<polygon fill="#7c3aed" stroke="#7c3aed" stroke-width="1.5" points="416.45,-1169.04 414,-1162.04 411.55,-1169.04 416.45,-1169.04"/>
</g>
<!-- install -->
<g id="node3" class="node">
<title>install</title>
<path fill="#7c3aed" stroke="#5b21b6" stroke-width="2" d="M452.5,-1068C452.5,-1068 375.5,-1068 375.5,-1068 369.5,-1068 363.5,-1062 363.5,-1056 363.5,-1056 363.5,-1044 363.5,-1044 363.5,-1038 369.5,-1032 375.5,-1032 375.5,-1032 452.5,-1032 452.5,-1032 458.5,-1032 464.5,-1038 464.5,-1044 464.5,-1044 464.5,-1056 464.5,-1056 464.5,-1062 458.5,-1068 452.5,-1068"/>
<text text-anchor="start" x="371.5" y="-1048.2" font-family="Arial" font-weight="bold" font-size="11.00" fill="white">Событие install</text>
</g>
<!-- reg&#45;&gt;install -->
<g id="edge16" class="edge">
<title>reg&#45;&gt;install</title>
<path fill="none" stroke="#7c3aed" stroke-width="1.5" d="M414,-1124.86C414,-1119.04 414,-1112.23 414,-1105.15"/>
<polygon fill="#7c3aed" stroke="#7c3aed" stroke-width="1.5" points="416.45,-1105 414,-1098 411.55,-1105 416.45,-1105"/>
</g>
<!-- precache -->
<g id="node4" class="node">
<title>precache</title>
<path fill="#7c3aed" stroke="#5b21b6" stroke-width="2" d="M470.5,-995C470.5,-995 357.5,-995 357.5,-995 351.5,-995 345.5,-989 345.5,-983 345.5,-983 345.5,-971 345.5,-971 345.5,-965 351.5,-959 357.5,-959 357.5,-959 470.5,-959 470.5,-959 476.5,-959 482.5,-965 482.5,-971 482.5,-971 482.5,-983 482.5,-983 482.5,-989 476.5,-995 470.5,-995"/>
<text text-anchor="start" x="391" y="-984" font-family="Arial" font-weight="bold" font-size="10.00" fill="white">Pre&#45;cache</text>
<text text-anchor="start" x="366.5" y="-974.8" font-family="Arial" font-size="9.00" fill="#dddddd">App Shell: HTML, CSS,</text>
<text text-anchor="start" x="353.5" y="-965.8" font-family="Arial" font-size="9.00" fill="#dddddd">JS&#45;бандлы, шрифты, иконки</text>
</g>
<!-- install&#45;&gt;precache -->
<g id="edge1" class="edge">
<title>install&#45;&gt;precache</title>
<path fill="none" stroke="#dddddd" stroke-width="1.5" d="M414,-1031.81C414,-1022.92 414,-1011.91 414,-1002.17"/>
<polygon fill="#dddddd" stroke="#dddddd" stroke-width="1.5" points="416.45,-1002.03 414,-995.03 411.55,-1002.03 416.45,-1002.03"/>
</g>
<!-- skipwait -->
<g id="node5" class="node">
<title>skipwait</title>
<path fill="#7c3aed" stroke="#5b21b6" stroke-width="2" d="M450.5,-922C450.5,-922 377.5,-922 377.5,-922 371.5,-922 365.5,-916 365.5,-910 365.5,-910 365.5,-898 365.5,-898 365.5,-892 371.5,-886 377.5,-886 377.5,-886 450.5,-886 450.5,-886 456.5,-886 462.5,-892 462.5,-898 462.5,-898 462.5,-910 462.5,-910 462.5,-916 456.5,-922 450.5,-922"/>
<text text-anchor="start" x="373.5" y="-902.5" font-family="Arial" font-weight="bold" font-size="10.00" fill="white">self.skipWaiting()</text>
</g>
<!-- precache&#45;&gt;skipwait -->
<g id="edge2" class="edge">
<title>precache&#45;&gt;skipwait</title>
<path fill="none" stroke="#dddddd" stroke-width="1.5" d="M414,-958.81C414,-949.92 414,-938.91 414,-929.17"/>
<polygon fill="#dddddd" stroke="#dddddd" stroke-width="1.5" points="416.45,-929.03 414,-922.03 411.55,-929.03 416.45,-929.03"/>
</g>
<!-- activate -->
<g id="node6" class="node">
<title>activate</title>
<path fill="#7c3aed" stroke="#5b21b6" stroke-width="2" d="M457,-829C457,-829 371,-829 371,-829 365,-829 359,-823 359,-817 359,-817 359,-805 359,-805 359,-799 365,-793 371,-793 371,-793 457,-793 457,-793 463,-793 469,-799 469,-805 469,-805 469,-817 469,-817 469,-823 463,-829 457,-829"/>
<text text-anchor="start" x="367" y="-809.2" font-family="Arial" font-weight="bold" font-size="11.00" fill="white">Событие activate</text>
</g>
<!-- skipwait&#45;&gt;activate -->
<g id="edge17" class="edge">
<title>skipwait&#45;&gt;activate</title>
<path fill="none" stroke="#7c3aed" stroke-width="1.5" d="M414,-885.88C414,-880.09 414,-873.28 414,-866.18"/>
<polygon fill="#7c3aed" stroke="#7c3aed" stroke-width="1.5" points="416.45,-866 414,-859 411.55,-866 416.45,-866"/>
</g>
<!-- cleanup -->
<g id="node7" class="node">
<title>cleanup</title>
<path fill="#7c3aed" stroke="#5b21b6" stroke-width="2" d="M475,-756C475,-756 353,-756 353,-756 347,-756 341,-750 341,-744 341,-744 341,-732 341,-732 341,-726 347,-720 353,-720 353,-720 475,-720 475,-720 481,-720 487,-726 487,-732 487,-732 487,-744 487,-744 487,-750 481,-756 475,-756"/>
<text text-anchor="start" x="363" y="-740.5" font-family="Arial" font-weight="bold" font-size="10.00" fill="white">Очистка устаревших</text>
<text text-anchor="start" x="349" y="-731.3" font-family="Arial" font-size="9.00" fill="#dddddd">Удаление старых версий кэша</text>
</g>
<!-- activate&#45;&gt;cleanup -->
<g id="edge3" class="edge">
<title>activate&#45;&gt;cleanup</title>
<path fill="none" stroke="#dddddd" stroke-width="1.5" d="M414,-792.81C414,-783.92 414,-772.91 414,-763.17"/>
<polygon fill="#dddddd" stroke="#dddddd" stroke-width="1.5" points="416.45,-763.03 414,-756.03 411.55,-763.03 416.45,-763.03"/>
</g>
<!-- claim -->
<g id="node8" class="node">
<title>claim</title>
<path fill="#7c3aed" stroke="#5b21b6" stroke-width="2" d="M450.5,-683C450.5,-683 377.5,-683 377.5,-683 371.5,-683 365.5,-677 365.5,-671 365.5,-671 365.5,-659 365.5,-659 365.5,-653 371.5,-647 377.5,-647 377.5,-647 450.5,-647 450.5,-647 456.5,-647 462.5,-653 462.5,-659 462.5,-659 462.5,-671 462.5,-671 462.5,-677 456.5,-683 450.5,-683"/>
<text text-anchor="start" x="381" y="-667.5" font-family="Arial" font-weight="bold" font-size="10.00" fill="white">clients.claim()</text>
<text text-anchor="start" x="373.5" y="-658.3" font-family="Arial" font-size="9.00" fill="#dddddd">Перехват запросов</text>
</g>
<!-- cleanup&#45;&gt;claim -->
<g id="edge4" class="edge">
<title>cleanup&#45;&gt;claim</title>
<path fill="none" stroke="#dddddd" stroke-width="1.5" d="M414,-719.81C414,-710.92 414,-699.91 414,-690.17"/>
<polygon fill="#dddddd" stroke="#dddddd" stroke-width="1.5" points="416.45,-690.03 414,-683.03 411.55,-690.03 416.45,-690.03"/>
</g>
<!-- fetch_event -->
<g id="node9" class="node">
<title>fetch_event</title>
<path fill="#7c3aed" stroke="#5b21b6" stroke-width="2" d="M461.5,-610C461.5,-610 366.5,-610 366.5,-610 360.5,-610 354.5,-604 354.5,-598 354.5,-598 354.5,-586 354.5,-586 354.5,-580 360.5,-574 366.5,-574 366.5,-574 461.5,-574 461.5,-574 467.5,-574 473.5,-580 473.5,-586 473.5,-586 473.5,-598 473.5,-598 473.5,-604 467.5,-610 461.5,-610"/>
<text text-anchor="start" x="374.5" y="-594.2" font-family="Arial" font-weight="bold" font-size="11.00" fill="white">Событие fetch</text>
<text text-anchor="start" x="362.5" y="-584.8" font-family="Arial" font-size="9.00" fill="#dddddd">Перехват HTTP&#45;запроса</text>
</g>
<!-- claim&#45;&gt;fetch_event -->
<g id="edge18" class="edge">
<title>claim&#45;&gt;fetch_event</title>
<path fill="none" stroke="#7c3aed" stroke-width="1.5" d="M414,-646.81C414,-637.92 414,-626.91 414,-617.17"/>
<polygon fill="#7c3aed" stroke="#7c3aed" stroke-width="1.5" points="416.45,-617.03 414,-610.03 411.55,-617.03 416.45,-617.03"/>
</g>
<!-- resource_type -->
<g id="node10" class="node">
<title>resource_type</title>
<polygon fill="#ede9fe" stroke="#7c3aed" stroke-width="2" points="414,-537 352,-509 414,-481 476,-509 414,-537"/>
<text text-anchor="start" x="404.5" y="-512" font-family="Arial" font-weight="bold" font-size="10.00">Тип</text>
<text text-anchor="start" x="391" y="-502" font-family="Arial" font-weight="bold" font-size="10.00">ресурса?</text>
</g>
<!-- fetch_event&#45;&gt;resource_type -->
<g id="edge19" class="edge">
<title>fetch_event&#45;&gt;resource_type</title>
<path fill="none" stroke="#7c3aed" stroke-width="1.5" d="M414,-573.82C414,-565.23 414,-554.51 414,-544.32"/>
<polygon fill="#7c3aed" stroke="#7c3aed" stroke-width="1.5" points="416.45,-544.04 414,-537.04 411.55,-544.04 416.45,-544.04"/>
</g>
<!-- swr_cache -->
<g id="node11" class="node">
<title>swr_cache</title>
<path fill="white" stroke="#7c3aed" stroke-width="1.5" d="M383,-398C383,-398 297,-398 297,-398 291,-398 285,-392 285,-386 285,-386 285,-374 285,-374 285,-368 291,-362 297,-362 297,-362 383,-362 383,-362 389,-362 395,-368 395,-374 395,-374 395,-386 395,-386 395,-392 389,-398 383,-398"/>
<text text-anchor="start" x="293" y="-382.5" font-family="Arial" font-weight="bold" font-size="10.00">① Вернуть из кэша</text>
<text text-anchor="start" x="299" y="-373.3" font-family="Arial" font-size="9.00">(мгновенный ответ)</text>
</g>
<!-- resource_type&#45;&gt;swr_cache -->
<g id="edge20" class="edge">
<title>resource_type&#45;&gt;swr_cache</title>
<path fill="none" stroke="#7c3aed" stroke-width="1.5" d="M390.97,-491.28C381.77,-483.57 371.77,-473.75 365,-463 360.89,-456.47 357.42,-449.23 354.5,-441.82"/>
<polygon fill="#7c3aed" stroke="#7c3aed" stroke-width="1.5" points="356.7,-440.71 351.97,-435 352.1,-442.41 356.7,-440.71"/>
<text text-anchor="middle" x="402.5" y="-455.8" font-family="Arial" font-size="9.00" fill="#333333">Статика:</text>
<text text-anchor="middle" x="402.5" y="-445.8" font-family="Arial" font-size="9.00" fill="#333333">CSS, JS, шрифты</text>
</g>
<!-- cf_check -->
<g id="node14" class="node">
<title>cf_check</title>
<polygon fill="#ede9fe" stroke="#7c3aed" stroke-width="1.5" points="725,-290 681.95,-272 725,-254 768.05,-272 725,-290"/>
<text text-anchor="start" x="706.5" y="-270.8" font-family="Arial" font-weight="bold" font-size="9.00">В кэше?</text>
</g>
<!-- resource_type&#45;&gt;cf_check -->
<g id="edge21" class="edge">
<title>resource_type&#45;&gt;cf_check</title>
<path fill="none" stroke="#7c3aed" stroke-width="1.5" d="M438.24,-491.82C459.88,-477.25 492.34,-455.1 520,-435 583.86,-388.6 599.48,-376.47 661,-327 661.12,-326.9 661.25,-326.8 661.37,-326.7"/>
<polygon fill="#7c3aed" stroke="#7c3aed" stroke-width="1.5" points="663.11,-328.45 667,-322.14 660.02,-324.64 663.11,-328.45"/>
<text text-anchor="middle" x="638" y="-382.8" font-family="Arial" font-size="9.00" fill="#333333">Медиа:</text>
<text text-anchor="middle" x="638" y="-372.8" font-family="Arial" font-size="9.00" fill="#333333">S3 images</text>
</g>
<!-- nf_check -->
<g id="node18" class="node">
<title>nf_check</title>
<polygon fill="#ede9fe" stroke="#7c3aed" stroke-width="1.5" points="195,-290 159.15,-272 195,-254 230.85,-272 195,-290"/>
<text text-anchor="start" x="181" y="-270.8" font-family="Arial" font-weight="bold" font-size="9.00">Сеть?</text>
</g>
<!-- resource_type&#45;&gt;nf_check -->
<g id="edge22" class="edge">
<title>resource_type&#45;&gt;nf_check</title>
<path fill="none" stroke="#7c3aed" stroke-width="1.5" d="M367.17,-501.93C325.01,-493.95 264.55,-475.77 230,-435 206.44,-407.2 197.63,-367.26 194.73,-333.99"/>
<polygon fill="#7c3aed" stroke="#7c3aed" stroke-width="1.5" points="197.18,-333.79 194.2,-327 192.29,-334.16 197.18,-333.79"/>
<text text-anchor="middle" x="241" y="-382.8" font-family="Arial" font-size="9.00" fill="#333333">API:</text>
<text text-anchor="middle" x="241" y="-372.8" font-family="Arial" font-size="9.00" fill="#333333">/api/*</text>
</g>
<!-- nav_check -->
<g id="node22" class="node">
<title>nav_check</title>
<polygon fill="#ede9fe" stroke="#7c3aed" stroke-width="1.5" points="471,-290 435.15,-272 471,-254 506.85,-272 471,-290"/>
<text text-anchor="start" x="457" y="-270.8" font-family="Arial" font-weight="bold" font-size="9.00">Сеть?</text>
</g>
<!-- resource_type&#45;&gt;nav_check -->
<g id="edge23" class="edge">
<title>resource_type&#45;&gt;nav_check</title>
<path fill="none" stroke="#7c3aed" stroke-width="1.5" d="M429.54,-487.93C434.59,-480.47 439.73,-471.7 443,-463 458.49,-421.76 465.45,-372.48 468.56,-334.45"/>
<polygon fill="#7c3aed" stroke="#7c3aed" stroke-width="1.5" points="471.04,-334.16 469.13,-327 466.15,-333.79 471.04,-334.16"/>
<text text-anchor="middle" x="489" y="-382.8" font-family="Arial" font-size="9.00" fill="#333333">Навигация:</text>
<text text-anchor="middle" x="489" y="-372.8" font-family="Arial" font-size="9.00" fill="#333333">HTML</text>
</g>
<!-- swr_fetch -->
<g id="node12" class="node">
<title>swr_fetch</title>
<path fill="white" stroke="#7c3aed" stroke-width="1.5" d="M383,-290C383,-290 297,-290 297,-290 291,-290 285,-284 285,-278 285,-278 285,-266 285,-266 285,-260 291,-254 297,-254 297,-254 383,-254 383,-254 389,-254 395,-260 395,-266 395,-266 395,-278 395,-278 395,-284 389,-290 383,-290"/>
<text text-anchor="start" x="293" y="-274.5" font-family="Arial" font-weight="bold" font-size="10.00">② Фоновый запрос</text>
<text text-anchor="start" x="319.5" y="-265.3" font-family="Arial" font-size="9.00">к серверу</text>
</g>
<!-- swr_cache&#45;&gt;swr_fetch -->
<g id="edge5" class="edge">
<title>swr_cache&#45;&gt;swr_fetch</title>
<path fill="none" stroke="#7c3aed" stroke-width="1.5" stroke-dasharray="5,2" d="M340,-361.97C340,-344.53 340,-317.26 340,-297.51"/>
<polygon fill="#7c3aed" stroke="#7c3aed" stroke-width="1.5" points="342.45,-297.34 340,-290.34 337.55,-297.34 342.45,-297.34"/>
<text text-anchor="middle" x="365" y="-337.6" font-family="Arial" font-size="8.00" fill="#333333">параллельно</text>
</g>
<!-- swr_update -->
<g id="node13" class="node">
<title>swr_update</title>
<path fill="white" stroke="#7c3aed" stroke-width="1.5" d="M377,-208C377,-208 303,-208 303,-208 297,-208 291,-202 291,-196 291,-196 291,-184 291,-184 291,-178 297,-172 303,-172 303,-172 377,-172 377,-172 383,-172 389,-178 389,-184 389,-184 389,-196 389,-196 389,-202 383,-208 377,-208"/>
<text text-anchor="start" x="299" y="-192.5" font-family="Arial" font-weight="bold" font-size="10.00">③ Обновить кэш</text>
<text text-anchor="start" x="308" y="-183.3" font-family="Arial" font-size="9.00">новой версией</text>
</g>
<!-- swr_fetch&#45;&gt;swr_update -->
<g id="edge6" class="edge">
<title>swr_fetch&#45;&gt;swr_update</title>
<path fill="none" stroke="#7c3aed" stroke-width="1.5" d="M340,-253.64C340,-242.45 340,-227.74 340,-215.39"/>
<polygon fill="#7c3aed" stroke="#7c3aed" stroke-width="1.5" points="342.45,-215.05 340,-208.05 337.55,-215.05 342.45,-215.05"/>
</g>
<!-- response -->
<g id="node25" class="node">
<title>response</title>
<path fill="#ede9fe" stroke="#7c3aed" stroke-width="2" d="M524.5,-135C524.5,-135 417.5,-135 417.5,-135 411.5,-135 405.5,-129 405.5,-123 405.5,-123 405.5,-111 405.5,-111 405.5,-105 411.5,-99 417.5,-99 417.5,-99 524.5,-99 524.5,-99 530.5,-99 536.5,-105 536.5,-111 536.5,-111 536.5,-123 536.5,-123 536.5,-129 530.5,-135 524.5,-135"/>
<text text-anchor="start" x="413.5" y="-115.2" font-family="Arial" font-weight="bold" font-size="11.00">Ответ пользователю</text>
</g>
<!-- swr_update&#45;&gt;response -->
<g id="edge24" class="edge">
<title>swr_update&#45;&gt;response</title>
<path fill="none" stroke="#7c3aed" stroke-width="1.5" d="M386.12,-164C401.53,-155.65 418.52,-146.45 433.21,-138.48"/>
<polygon fill="#7c3aed" stroke="#7c3aed" stroke-width="1.5" points="434.44,-140.6 439.42,-135.11 432.1,-136.3 434.44,-140.6"/>
</g>
<!-- cf_hit -->
<g id="node15" class="node">
<title>cf_hit</title>
<path fill="white" stroke="#7c3aed" stroke-width="1.5" d="M762.5,-208C762.5,-208 687.5,-208 687.5,-208 681.5,-208 675.5,-202 675.5,-196 675.5,-196 675.5,-184 675.5,-184 675.5,-178 681.5,-172 687.5,-172 687.5,-172 762.5,-172 762.5,-172 768.5,-172 774.5,-178 774.5,-184 774.5,-184 774.5,-196 774.5,-196 774.5,-202 768.5,-208 762.5,-208"/>
<text text-anchor="start" x="683.5" y="-188.5" font-family="Arial" font-weight="bold" font-size="10.00">Вернуть из кэша</text>
</g>
<!-- cf_check&#45;&gt;cf_hit -->
<g id="edge7" class="edge">
<title>cf_check&#45;&gt;cf_hit</title>
<path fill="none" stroke="#7c3aed" stroke-width="1.5" d="M725,-253.64C725,-242.45 725,-227.74 725,-215.39"/>
<polygon fill="#7c3aed" stroke="#7c3aed" stroke-width="1.5" points="727.45,-215.05 725,-208.05 722.55,-215.05 727.45,-215.05"/>
<text text-anchor="middle" x="731" y="-228.8" font-family="Arial" font-size="9.00" fill="#333333">Да</text>
</g>
<!-- cf_miss -->
<g id="node16" class="node">
<title>cf_miss</title>
<path fill="white" stroke="#7c3aed" stroke-width="1.5" d="M888,-208C888,-208 816,-208 816,-208 810,-208 804,-202 804,-196 804,-196 804,-184 804,-184 804,-178 810,-172 816,-172 816,-172 888,-172 888,-172 894,-172 900,-178 900,-184 900,-184 900,-196 900,-196 900,-202 894,-208 888,-208"/>
<text text-anchor="start" x="823" y="-192.5" font-family="Arial" font-weight="bold" font-size="10.00">Запрос к S3</text>
<text text-anchor="start" x="812" y="-183.3" font-family="Arial" font-size="9.00">→ сохранить в кэш</text>
</g>
<!-- cf_check&#45;&gt;cf_miss -->
<g id="edge8" class="edge">
<title>cf_check&#45;&gt;cf_miss</title>
<path fill="none" stroke="#7c3aed" stroke-width="1.5" d="M741.34,-260.71C760.74,-248.49 793.57,-227.81 818.45,-212.13"/>
<polygon fill="#7c3aed" stroke="#7c3aed" stroke-width="1.5" points="819.97,-214.07 824.59,-208.27 817.36,-209.92 819.97,-214.07"/>
<text text-anchor="middle" x="804" y="-228.8" font-family="Arial" font-size="9.00" fill="#333333">Нет</text>
</g>
<!-- cf_hit&#45;&gt;response -->
<g id="edge25" class="edge">
<title>cf_hit&#45;&gt;response</title>
<path fill="none" stroke="#7c3aed" stroke-width="1.5" d="M667,-165.95C664.98,-165.28 662.98,-164.62 661,-164 622.76,-151.96 579.36,-141.24 543.7,-133.18"/>
<polygon fill="#7c3aed" stroke="#7c3aed" stroke-width="1.5" points="544.04,-130.75 536.67,-131.61 542.96,-135.53 544.04,-130.75"/>
</g>
<!-- cf_lru -->
<g id="node17" class="node">
<title>cf_lru</title>
<polygon fill="#fff7ed" stroke="#c2410c" points="886.5,-135 811.5,-135 811.5,-99 892.5,-99 892.5,-129 886.5,-135"/>
<polyline fill="none" stroke="#c2410c" points="886.5,-135 886.5,-129 "/>
<polyline fill="none" stroke="#c2410c" points="892.5,-129 886.5,-129 "/>
<text text-anchor="start" x="826" y="-123.6" font-family="Arial" font-weight="bold" font-size="8.00" fill="#c2410c">LRU&#45;очистка</text>
<text text-anchor="start" x="819.5" y="-115.6" font-family="Arial" font-size="8.00" fill="#c2410c">при превышении</text>
<text text-anchor="start" x="825.5" y="-107.6" font-family="Arial" font-size="8.00" fill="#c2410c">лимита 50 МБ</text>
</g>
<!-- cf_miss&#45;&gt;cf_lru -->
<g id="edge9" class="edge">
<title>cf_miss&#45;&gt;cf_lru</title>
<path fill="none" stroke="#c2410c" stroke-width="1.5" stroke-dasharray="1,5" d="M852,-171.81C852,-160.65 852,-146.16 852,-135.03"/>
</g>
<!-- cf_miss&#45;&gt;response -->
<!-- nf_online -->
<g id="node19" class="node">
<title>nf_online</title>
<path fill="white" stroke="#7c3aed" stroke-width="1.5" d="M105.5,-208C105.5,-208 28.5,-208 28.5,-208 22.5,-208 16.5,-202 16.5,-196 16.5,-196 16.5,-184 16.5,-184 16.5,-178 22.5,-172 28.5,-172 28.5,-172 105.5,-172 105.5,-172 111.5,-172 117.5,-178 117.5,-184 117.5,-184 117.5,-196 117.5,-196 117.5,-202 111.5,-208 105.5,-208"/>
<text text-anchor="start" x="24.5" y="-192.5" font-family="Arial" font-weight="bold" font-size="10.00">Запрос к серверу</text>
<text text-anchor="start" x="32.5" y="-183.3" font-family="Arial" font-size="9.00">→ обновить кэш</text>
</g>
<!-- nf_check&#45;&gt;nf_online -->
<g id="edge10" class="edge">
<title>nf_check&#45;&gt;nf_online</title>
<path fill="none" stroke="#7c3aed" stroke-width="1.5" d="M179.81,-261.51C160.32,-249.32 125.94,-227.84 100.25,-211.78"/>
<polygon fill="#7c3aed" stroke="#7c3aed" stroke-width="1.5" points="101.48,-209.66 94.25,-208.03 98.88,-213.82 101.48,-209.66"/>
<text text-anchor="middle" x="156" y="-228.8" font-family="Arial" font-size="9.00" fill="#333333">Онлайн</text>
</g>
<!-- nf_offline -->
<g id="node20" class="node">
<title>nf_offline</title>
<path fill="white" stroke="#7c3aed" stroke-width="1.5" d="M231,-208C231,-208 159,-208 159,-208 153,-208 147,-202 147,-196 147,-196 147,-184 147,-184 147,-178 153,-172 159,-172 159,-172 231,-172 231,-172 237,-172 243,-178 243,-184 243,-184 243,-196 243,-196 243,-202 237,-208 231,-208"/>
<text text-anchor="start" x="155" y="-192.5" font-family="Arial" font-weight="bold" font-size="10.00">Fallback из кэша</text>
<text text-anchor="start" x="159.5" y="-183.3" font-family="Arial" font-size="9.00">(офлайн&#45;режим)</text>
</g>
<!-- nf_check&#45;&gt;nf_offline -->
<g id="edge11" class="edge">
<title>nf_check&#45;&gt;nf_offline</title>
<path fill="none" stroke="#7c3aed" stroke-width="1.5" d="M195,-253.64C195,-242.45 195,-227.74 195,-215.39"/>
<polygon fill="#7c3aed" stroke="#7c3aed" stroke-width="1.5" points="197.45,-215.05 195,-208.05 192.55,-215.05 197.45,-215.05"/>
<text text-anchor="middle" x="213" y="-228.8" font-family="Arial" font-size="9.00" fill="#333333">Офлайн</text>
</g>
<!-- nf_timeout -->
<g id="node21" class="node">
<title>nf_timeout</title>
<polygon fill="#fff7ed" stroke="#c2410c" points="107.5,-135 20.5,-135 20.5,-99 113.5,-99 113.5,-129 107.5,-135"/>
<polyline fill="none" stroke="#c2410c" points="107.5,-135 107.5,-129 "/>
<polyline fill="none" stroke="#c2410c" points="113.5,-129 107.5,-129 "/>
<text text-anchor="start" x="38" y="-123.6" font-family="Arial" font-weight="bold" font-size="8.00" fill="#c2410c">Таймаут: 3 сек</text>
<text text-anchor="start" x="28.5" y="-115.6" font-family="Arial" font-size="8.00" fill="#c2410c">При превышении →</text>
<text text-anchor="start" x="39.5" y="-107.6" font-family="Arial" font-size="8.00" fill="#c2410c">fallback на кэш</text>
</g>
<!-- nf_online&#45;&gt;nf_timeout -->
<g id="edge12" class="edge">
<title>nf_online&#45;&gt;nf_timeout</title>
<path fill="none" stroke="#c2410c" stroke-width="1.5" stroke-dasharray="1,5" d="M67,-171.81C67,-160.65 67,-146.16 67,-135.03"/>
</g>
<!-- nf_online&#45;&gt;response -->
<g id="edge27" class="edge">
<title>nf_online&#45;&gt;response</title>
<path fill="none" stroke="#7c3aed" stroke-width="1.5" d="M251,-140.27C305.74,-131.79 358.39,-126.33 398.46,-122.94"/>
<polygon fill="#7c3aed" stroke="#7c3aed" stroke-width="1.5" points="398.69,-125.38 405.46,-122.36 398.29,-120.5 398.69,-125.38"/>
</g>
<!-- nf_offline&#45;&gt;response -->
<!-- nav_ssr -->
<g id="node23" class="node">
<title>nav_ssr</title>
<path fill="white" stroke="#7c3aed" stroke-width="1.5" d="M634,-208C634,-208 564,-208 564,-208 558,-208 552,-202 552,-196 552,-196 552,-184 552,-184 552,-178 558,-172 564,-172 564,-172 634,-172 634,-172 640,-172 646,-178 646,-184 646,-184 646,-196 646,-196 646,-202 640,-208 634,-208"/>
<text text-anchor="start" x="560" y="-188.5" font-family="Arial" font-weight="bold" font-size="10.00">SSR от сервера</text>
</g>
<!-- nav_check&#45;&gt;nav_ssr -->
<g id="edge13" class="edge">
<title>nav_check&#45;&gt;nav_ssr</title>
<path fill="none" stroke="#7c3aed" stroke-width="1.5" d="M486.19,-261.51C505.68,-249.32 540.06,-227.84 565.75,-211.78"/>
<polygon fill="#7c3aed" stroke="#7c3aed" stroke-width="1.5" points="567.12,-213.82 571.75,-208.03 564.52,-209.66 567.12,-213.82"/>
<text text-anchor="middle" x="559" y="-228.8" font-family="Arial" font-size="9.00" fill="#333333">Онлайн</text>
</g>
<!-- nav_offline -->
<g id="node24" class="node">
<title>nav_offline</title>
<path fill="white" stroke="#7c3aed" stroke-width="1.5" d="M511,-208C511,-208 431,-208 431,-208 425,-208 419,-202 419,-196 419,-196 419,-184 419,-184 419,-178 425,-172 431,-172 431,-172 511,-172 511,-172 517,-172 523,-178 523,-184 523,-184 523,-196 523,-196 523,-202 517,-208 511,-208"/>
<text text-anchor="start" x="427" y="-197" font-family="Arial" font-weight="bold" font-size="10.00">Офлайн&#45;страница</text>
<text text-anchor="start" x="447.5" y="-187.8" font-family="Arial" font-size="9.00">/offline.html</text>
<text text-anchor="start" x="441" y="-178.8" font-family="Arial" font-size="9.00">(из pre&#45;cache)</text>
</g>
<!-- nav_check&#45;&gt;nav_offline -->
<g id="edge14" class="edge">
<title>nav_check&#45;&gt;nav_offline</title>
<path fill="none" stroke="#7c3aed" stroke-width="1.5" d="M471,-253.64C471,-242.45 471,-227.74 471,-215.39"/>
<polygon fill="#7c3aed" stroke="#7c3aed" stroke-width="1.5" points="473.45,-215.05 471,-208.05 468.55,-215.05 473.45,-215.05"/>
<text text-anchor="middle" x="489" y="-228.8" font-family="Arial" font-size="9.00" fill="#333333">Офлайн</text>
</g>
<!-- nav_ssr&#45;&gt;response -->
<g id="edge29" class="edge">
<title>nav_ssr&#45;&gt;response</title>
<path fill="none" stroke="#7c3aed" stroke-width="1.5" d="M553.93,-164C538.96,-155.7 522.47,-146.55 508.17,-138.62"/>
<polygon fill="#7c3aed" stroke="#7c3aed" stroke-width="1.5" points="509.16,-136.37 501.85,-135.11 506.79,-140.65 509.16,-136.37"/>
</g>
<!-- nav_offline&#45;&gt;response -->
<!-- update_note -->
<g id="node26" class="node">
<title>update_note</title>
<polygon fill="#f5f3ff" stroke="#7c3aed" stroke-width="1.5" points="474,-62 354,-62 354,0 480,0 480,-56 474,-62"/>
<polyline fill="none" stroke="#7c3aed" stroke-width="1.5" points="474,-62 474,-56 "/>
<polyline fill="none" stroke="#7c3aed" stroke-width="1.5" points="480,-56 474,-56 "/>
<text text-anchor="start" x="380" y="-51.8" font-family="Arial" font-weight="bold" font-size="9.00" fill="#5b21b6">Обновление SW:</text>
<text text-anchor="start" x="362" y="-42.8" font-family="Arial" font-size="9.00" fill="#5b21b6">Новый деплой → браузер</text>
<text text-anchor="start" x="362.5" y="-33.8" font-family="Arial" font-size="9.00" fill="#5b21b6">обнаруживает изменения</text>
<text text-anchor="start" x="369.5" y="-24.8" font-family="Arial" font-size="9.00" fill="#5b21b6">в sw.js → install нового</text>
<text text-anchor="start" x="373.5" y="-15.8" font-family="Arial" font-size="9.00" fill="#5b21b6">SW → activate после</text>
<text text-anchor="start" x="379.5" y="-6.8" font-family="Arial" font-size="9.00" fill="#5b21b6">закрытия вкладок</text>
</g>
<!-- response&#45;&gt;update_note -->
<!-- endnode -->
<g id="node27" class="node">
<title>endnode</title>
<ellipse fill="#7c3aed" stroke="#5b21b6" cx="524" cy="-31" rx="11" ry="11"/>
<ellipse fill="none" stroke="#5b21b6" cx="524" cy="-31" rx="15" ry="15"/>
</g>
<!-- response&#45;&gt;endnode -->
<g id="edge31" class="edge">
<title>response&#45;&gt;endnode</title>
<path fill="none" stroke="#7c3aed" stroke-width="1.5" d="M481.98,-98.6C490.92,-84.43 503.5,-64.49 512.56,-50.13"/>
<polygon fill="#7c3aed" stroke="#7c3aed" stroke-width="1.5" points="514.79,-51.19 516.45,-43.97 510.64,-48.58 514.79,-51.19"/>
</g>
</g>
</svg>
