<?xml version="1.0" encoding="UTF-8" standalone="no"?>
<!DOCTYPE svg PUBLIC "-//W3C//DTD SVG 1.1//EN"
 "http://www.w3.org/Graphics/SVG/1.1/DTD/svg11.dtd">
<!-- Generated by graphviz version 2.43.0 (0)
 -->
<!-- Title: DFD Pages: 1 -->
<svg width="2549pt" height="1049pt"
 viewBox="0.00 0.00 2548.50 1049.00" xmlns="http://www.w3.org/2000/svg" xmlns:xlink="http://www.w3.org/1999/xlink">
<g id="graph0" class="graph" transform="scale(1 1) rotate(0) translate(36 1013)">
<title>DFD</title>
<polygon fill="white" stroke="transparent" points="-36,36 -36,-1013 2512.5,-1013 2512.5,36 -36,36"/>
<!-- user -->
<g id="node1" class="node">
<title>user</title>
<polygon fill="#ede9fe" stroke="#7c3aed" stroke-width="2.5" points="1144.5,-977 1030.5,-977 1030.5,-941 1144.5,-941 1144.5,-977"/>
<text text-anchor="start" x="1038.5" y="-956.3" font-family="Arial" font-weight="bold" font-size="14.00">Пользователь</text>
</g>
<!-- p_load -->
<g id="node2" class="node">
<title>p_load</title>
<path fill="#7c3aed" stroke="#5b21b6" stroke-width="2" d="M1640.5,-693C1640.5,-693 1520.5,-693 1520.5,-693 1514.5,-693 1508.5,-687 1508.5,-681 1508.5,-681 1508.5,-647 1508.5,-647 1508.5,-641 1514.5,-635 1520.5,-635 1520.5,-635 1640.5,-635 1640.5,-635 1646.5,-635 1652.5,-641 1652.5,-647 1652.5,-647 1652.5,-681 1652.5,-681 1652.5,-687 1646.5,-693 1640.5,-693"/>
<text text-anchor="start" x="1546.5" y="-667.2" font-family="Arial" font-weight="bold" font-size="11.00" fill="white">2.1. Загрузка</text>
<text text-anchor="start" x="1542.5" y="-656.2" font-family="Arial" font-weight="bold" font-size="11.00" fill="white">ленты постов</text>
</g>
<!-- user&#45;&gt;p_load -->
<g id="edge3" class="edge">
<title>user&#45;&gt;p_load</title>
<path fill="none" stroke="#7c3aed" stroke-width="1.8" d="M1116.14,-940.98C1195.89,-893.58 1421.53,-759.48 1526.08,-697.34"/>
<polygon fill="#7c3aed" stroke="#7c3aed" stroke-width="1.8" points="1527.64,-699.67 1533.09,-693.18 1524.78,-694.86 1527.64,-699.67"/>
<text text-anchor="start" x="1345.5" y="-814.8" font-family="Arial" font-size="9.00" fill="#333333">Открытие ленты</text>
</g>
<!-- p_create -->
<g id="node3" class="node">
<title>p_create</title>
<path fill="#7c3aed" stroke="#5b21b6" stroke-width="2" d="M839.5,-693C839.5,-693 719.5,-693 719.5,-693 713.5,-693 707.5,-687 707.5,-681 707.5,-681 707.5,-647 707.5,-647 707.5,-641 713.5,-635 719.5,-635 719.5,-635 839.5,-635 839.5,-635 845.5,-635 851.5,-641 851.5,-647 851.5,-647 851.5,-681 851.5,-681 851.5,-687 845.5,-693 839.5,-693"/>
<text text-anchor="start" x="742.5" y="-667.2" font-family="Arial" font-weight="bold" font-size="11.00" fill="white">2.2. Создание</text>
<text text-anchor="start" x="747" y="-656.2" font-family="Arial" font-weight="bold" font-size="11.00" fill="white">публикации</text>
</g>
<!-- user&#45;&gt;p_create -->
<g id="edge1" class="edge">
<title>user&#45;&gt;p_create</title>
<path fill="none" stroke="#7c3aed" stroke-width="1.8" d="M1069.61,-940.98C1020.23,-894.01 881.34,-761.88 815.28,-699.04"/>
<polygon fill="#7c3aed" stroke="#7c3aed" stroke-width="1.8" points="816.84,-696.66 809.12,-693.18 812.98,-700.72 816.84,-696.66"/>
<text text-anchor="start" x="959" y="-819.8" font-family="Arial" font-size="9.00" fill="#333333">Изображение,</text>
<text text-anchor="start" x="953.5" y="-809.8" font-family="Arial" font-size="9.00" fill="#333333">подпись (caption)</text>
</g>
<!-- p_like -->
<g id="node5" class="node">
<title>p_like</title>
<path fill="#7c3aed" stroke="#5b21b6" stroke-width="2" d="M2405.5,-581C2405.5,-581 2285.5,-581 2285.5,-581 2279.5,-581 2273.5,-575 2273.5,-569 2273.5,-569 2273.5,-535 2273.5,-535 2273.5,-529 2279.5,-523 2285.5,-523 2285.5,-523 2405.5,-523 2405.5,-523 2411.5,-523 2417.5,-529 2417.5,-535 2417.5,-535 2417.5,-569 2417.5,-569 2417.5,-575 2411.5,-581 2405.5,-581"/>
<text text-anchor="start" x="2306" y="-555.2" font-family="Arial" font-weight="bold" font-size="11.00" fill="white">2.4. Обработка</text>
<text text-anchor="start" x="2330" y="-544.2" font-family="Arial" font-weight="bold" font-size="11.00" fill="white">лайка</text>
</g>
<!-- user&#45;&gt;p_like -->
<g id="edge5" class="edge">
<title>user&#45;&gt;p_like</title>
<path fill="none" stroke="#7c3aed" stroke-width="1.8" d="M1144.74,-958.45C1319.04,-959.07 1840.62,-955.03 1993.5,-887 2144.86,-819.65 2271.39,-658.67 2321.92,-587.66"/>
<polygon fill="#7c3aed" stroke="#7c3aed" stroke-width="1.8" points="2324.25,-589.23 2326.58,-581.08 2319.67,-586 2324.25,-589.23"/>
<text text-anchor="start" x="2135" y="-819.8" font-family="Arial" font-size="9.00" fill="#333333">ID поста,</text>
<text text-anchor="start" x="2124.5" y="-809.8" font-family="Arial" font-size="9.00" fill="#333333">запрос лайка</text>
</g>
<!-- p_comment -->
<g id="node6" class="node">
<title>p_comment</title>
<path fill="#7c3aed" stroke="#5b21b6" stroke-width="2" d="M209.5,-581C209.5,-581 89.5,-581 89.5,-581 83.5,-581 77.5,-575 77.5,-569 77.5,-569 77.5,-535 77.5,-535 77.5,-529 83.5,-523 89.5,-523 89.5,-523 209.5,-523 209.5,-523 215.5,-523 221.5,-529 221.5,-535 221.5,-535 221.5,-569 221.5,-569 221.5,-575 215.5,-581 209.5,-581"/>
<text text-anchor="start" x="110" y="-555.2" font-family="Arial" font-weight="bold" font-size="11.00" fill="white">2.5. Обработка</text>
<text text-anchor="start" x="113" y="-544.2" font-family="Arial" font-weight="bold" font-size="11.00" fill="white">комментария</text>
</g>
<!-- user&#45;&gt;p_comment -->
<g id="edge6" class="edge">
<title>user&#45;&gt;p_comment</title>
<path fill="none" stroke="#7c3aed" stroke-width="1.8" d="M1030.16,-943.68C981.21,-930.82 909.3,-910.39 848.5,-887 603.82,-792.87 326.51,-648.45 208.1,-584.89"/>
<polygon fill="#7c3aed" stroke="#7c3aed" stroke-width="1.8" points="209.25,-582.33 200.88,-581.01 206.6,-587.26 209.25,-582.33"/>
<text text-anchor="start" x="717.5" y="-819.8" font-family="Arial" font-size="9.00" fill="#333333">Текст,</text>
<text text-anchor="start" x="712.5" y="-809.8" font-family="Arial" font-size="9.00" fill="#333333">ID поста</text>
</g>
<!-- p_load&#45;&gt;user -->
<g id="edge4" class="edge">
<title>p_load&#45;&gt;user</title>
<path fill="none" stroke="#7c3aed" stroke-width="1.8" stroke-dasharray="5,2" d="M1508.43,-667.17C1339.85,-673.92 927.73,-700.67 843.5,-802 785.24,-872.09 931.84,-921.14 1022.38,-943.8"/>
<polygon fill="#7c3aed" stroke="#7c3aed" stroke-width="1.8" points="1021.98,-946.59 1030.42,-945.78 1023.32,-941.15 1021.98,-946.59"/>
<text text-anchor="start" x="843.5" y="-819.8" font-family="Arial" font-size="9.00" fill="#333333">Список постов</text>
<text text-anchor="start" x="849" y="-809.8" font-family="Arial" font-size="9.00" fill="#333333">(FeedPost[])</text>
</g>
<!-- p_page -->
<g id="node7" class="node">
<title>p_page</title>
<path fill="#7c3aed" stroke="#5b21b6" stroke-width="2" d="M1278.5,-340C1278.5,-340 1158.5,-340 1158.5,-340 1152.5,-340 1146.5,-334 1146.5,-328 1146.5,-328 1146.5,-294 1146.5,-294 1146.5,-288 1152.5,-282 1158.5,-282 1158.5,-282 1278.5,-282 1278.5,-282 1284.5,-282 1290.5,-288 1290.5,-294 1290.5,-294 1290.5,-328 1290.5,-328 1290.5,-334 1284.5,-340 1278.5,-340"/>
<text text-anchor="start" x="1178.5" y="-314.2" font-family="Arial" font-weight="bold" font-size="11.00" fill="white">2.6. Пагинация</text>
<text text-anchor="start" x="1179.5" y="-303.2" font-family="Arial" font-weight="bold" font-size="11.00" fill="white">(cursor&#45;based)</text>
</g>
<!-- p_load&#45;&gt;p_page -->
<g id="edge9" class="edge">
<title>p_load&#45;&gt;p_page</title>
<path fill="none" stroke="#7c3aed" stroke-width="1.8" d="M1508.31,-648.47C1457.88,-636.03 1390.54,-614.69 1338.5,-581 1281.48,-544.08 1262.51,-530.89 1234.5,-469 1217.01,-430.34 1214.82,-381 1215.83,-348.04"/>
<polygon fill="#7c3aed" stroke="#7c3aed" stroke-width="1.8" points="1218.63,-348.14 1216.14,-340.04 1213.03,-347.92 1218.63,-348.14"/>
<text text-anchor="start" x="1241" y="-461.8" font-family="Arial" font-size="9.00" fill="#333333">Scroll event</text>
<text text-anchor="start" x="1234.5" y="-451.8" font-family="Arial" font-size="9.00" fill="#333333">(конец списка)</text>
</g>
<!-- ds_posts -->
<g id="node8" class="node">
<title>ds_posts</title>
<path fill="#7c3aed" stroke="transparent" stroke-width="2" d="M1196,-40C1196,-40 1047,-40 1047,-40 1041,-40 1035,-34 1035,-28 1035,-28 1035,-16 1035,-16 1035,-10 1041,-4 1047,-4 1047,-4 1196,-4 1196,-4 1202,-4 1208,-10 1208,-16 1208,-16 1208,-28 1208,-28 1208,-34 1202,-40 1196,-40"/>
<polygon fill="white" stroke="transparent" points="1043,-8 1043,-36 1200,-36 1200,-8 1043,-8"/>
<polygon fill="#ede9fe" stroke="transparent" points="1044.5,-9 1044.5,-35 1069.5,-35 1069.5,-9 1044.5,-9"/>
<polygon fill="none" stroke="#7c3aed" points="1044.5,-9 1044.5,-35 1069.5,-35 1069.5,-9 1044.5,-9"/>
<text text-anchor="start" x="1053" y="-19.6" font-family="Arial" font-weight="bold" font-size="13.00">1</text>
<text text-anchor="start" x="1097" y="-19.9" font-family="Arial" font-weight="bold" font-size="12.00">База постов</text>
<polygon fill="none" stroke="#7c3aed" points="1043,-8 1043,-36 1200,-36 1200,-8 1043,-8"/>
</g>
<!-- p_load&#45;&gt;ds_posts -->
<g id="edge14" class="edge">
<title>p_load&#45;&gt;ds_posts</title>
<path fill="none" stroke="#7c3aed" stroke-width="1.8" d="M1610.65,-634.85C1624.09,-620.25 1638.45,-601.24 1645.5,-581 1664.8,-525.6 1654.97,-506.9 1645.5,-449 1618.93,-286.58 1651.82,-205.85 1527.5,-98 1482.05,-58.57 1321.62,-38.6 1216.55,-29.53"/>
<polygon fill="#7c3aed" stroke="#7c3aed" stroke-width="1.8" points="1216.66,-26.73 1208.45,-28.84 1216.19,-32.31 1216.66,-26.73"/>
<text text-anchor="start" x="1632.5" y="-313.8" font-family="Arial" font-size="9.00" fill="#333333">SELECT + JOIN</text>
<text text-anchor="start" x="1645.5" y="-303.8" font-family="Arial" font-size="9.00" fill="#333333">+ COUNT</text>
</g>
<!-- p_create&#45;&gt;user -->
<g id="edge2" class="edge">
<title>p_create&#45;&gt;user</title>
<path fill="none" stroke="#7c3aed" stroke-width="1.8" stroke-dasharray="5,2" d="M851.53,-685.48C911.34,-705.93 994.72,-742.95 1046.5,-802 1078.87,-838.92 1086.13,-898.44 1087.49,-932.29"/>
<polygon fill="#7c3aed" stroke="#7c3aed" stroke-width="1.8" points="1084.71,-932.8 1087.73,-940.71 1090.31,-932.64 1084.71,-932.8"/>
<text text-anchor="start" x="1064.5" y="-814.8" font-family="Arial" font-size="9.00" fill="#333333">Успех / Ошибка</text>
</g>
<!-- p_check -->
<g id="node4" class="node">
<title>p_check</title>
<path fill="#7c3aed" stroke="#5b21b6" stroke-width="2" d="M595.5,-340C595.5,-340 475.5,-340 475.5,-340 469.5,-340 463.5,-334 463.5,-328 463.5,-328 463.5,-294 463.5,-294 463.5,-288 469.5,-282 475.5,-282 475.5,-282 595.5,-282 595.5,-282 601.5,-282 607.5,-288 607.5,-294 607.5,-294 607.5,-328 607.5,-328 607.5,-334 601.5,-340 595.5,-340"/>
<text text-anchor="start" x="498.5" y="-314.2" font-family="Arial" font-weight="bold" font-size="11.00" fill="white">2.3. Проверка</text>
<text text-anchor="start" x="497.5" y="-303.2" font-family="Arial" font-weight="bold" font-size="11.00" fill="white">уникальности</text>
</g>
<!-- p_create&#45;&gt;p_check -->
<g id="edge7" class="edge">
<title>p_create&#45;&gt;p_check</title>
<path fill="none" stroke="#7c3aed" stroke-width="1.8" d="M756.67,-634.75C744.08,-619.04 728.26,-599.06 714.5,-581 677.11,-531.93 666.96,-520.17 632.5,-469 604.88,-427.99 575.31,-379.37 556.18,-347.21"/>
<polygon fill="#7c3aed" stroke="#7c3aed" stroke-width="1.8" points="558.51,-345.66 552.02,-340.21 553.7,-348.52 558.51,-345.66"/>
<text text-anchor="start" x="632.5" y="-456.8" font-family="Arial" font-size="9.00" fill="#333333">locationLogImageId</text>
</g>
<!-- p_create&#45;&gt;ds_posts -->
<g id="edge11" class="edge">
<title>p_create&#45;&gt;ds_posts</title>
<path fill="none" stroke="#7c3aed" stroke-width="1.8" d="M779.5,-634.76C779.5,-595.54 779.5,-522.38 779.5,-460 779.5,-460 779.5,-460 779.5,-162 779.5,-108.12 927,-65.06 1028.26,-41.85"/>
<polygon fill="#7c3aed" stroke="#7c3aed" stroke-width="1.8" points="1028.9,-44.57 1036.08,-40.07 1027.66,-39.11 1028.9,-44.57"/>
<text text-anchor="start" x="779.5" y="-308.8" font-family="Arial" font-size="9.00" fill="#333333">INSERT post</text>
</g>
<!-- ds_s3 -->
<g id="node11" class="node">
<title>ds_s3</title>
<path fill="#7c3aed" stroke="transparent" stroke-width="2" d="M1897,-44C1897,-44 1718,-44 1718,-44 1712,-44 1706,-38 1706,-32 1706,-32 1706,-12 1706,-12 1706,-6 1712,0 1718,0 1718,0 1897,0 1897,0 1903,0 1909,-6 1909,-12 1909,-12 1909,-32 1909,-32 1909,-38 1903,-44 1897,-44"/>
<polygon fill="white" stroke="transparent" points="1714,-4 1714,-40 1901,-40 1901,-4 1714,-4"/>
<polygon fill="#ede9fe" stroke="transparent" points="1715.5,-5 1715.5,-39 1740.5,-39 1740.5,-5 1715.5,-5"/>
<polygon fill="none" stroke="#7c3aed" points="1715.5,-5 1715.5,-39 1740.5,-39 1740.5,-5 1715.5,-5"/>
<text text-anchor="start" x="1724" y="-19.6" font-family="Arial" font-weight="bold" font-size="13.00">4</text>
<text text-anchor="start" x="1785.5" y="-25.4" font-family="Arial" font-weight="bold" font-size="12.00">Хранилище</text>
<text text-anchor="start" x="1767.5" y="-13.4" font-family="Arial" font-weight="bold" font-size="12.00">изображений (S3)</text>
<polygon fill="none" stroke="#7c3aed" points="1714,-4 1714,-40 1901,-40 1901,-4 1714,-4"/>
</g>
<!-- p_create&#45;&gt;ds_s3 -->
<g id="edge12" class="edge">
<title>p_create&#45;&gt;ds_s3</title>
<path fill="none" stroke="#7c3aed" stroke-width="1.8" d="M802.6,-634.95C815.27,-619.3 831.08,-599.32 844.5,-581 939.27,-451.62 919.06,-379.35 1046.5,-282 1245.48,-130 1539.34,-63.84 1697.35,-37.86"/>
<polygon fill="#7c3aed" stroke="#7c3aed" stroke-width="1.8" points="1698.25,-40.55 1705.7,-36.5 1697.36,-35.02 1698.25,-40.55"/>
<text text-anchor="start" x="1061" y="-313.8" font-family="Arial" font-size="9.00" fill="#333333">S3 key</text>
<text text-anchor="start" x="1046.5" y="-303.8" font-family="Arial" font-size="9.00" fill="#333333">изображения</text>
</g>
<!-- p_check&#45;&gt;p_create -->
<g id="edge8" class="edge">
<title>p_check&#45;&gt;p_create</title>
<path fill="none" stroke="#7c3aed" stroke-width="1.8" stroke-dasharray="5,2" d="M524.36,-340.06C513.26,-372.59 500.4,-427.12 519.5,-469 554.93,-546.68 639.56,-600.38 702.71,-631.27"/>
<polygon fill="#7c3aed" stroke="#7c3aed" stroke-width="1.8" points="701.87,-633.98 710.3,-634.93 704.3,-628.93 701.87,-633.98"/>
<text text-anchor="start" x="536" y="-461.8" font-family="Arial" font-size="9.00" fill="#333333">Доступно /</text>
<text text-anchor="start" x="519.5" y="-451.8" font-family="Arial" font-size="9.00" fill="#333333">Уже опубликовано</text>
</g>
<!-- p_check&#45;&gt;ds_posts -->
<g id="edge13" class="edge">
<title>p_check&#45;&gt;ds_posts</title>
<path fill="none" stroke="#7c3aed" stroke-width="1.8" d="M550.52,-281.95C576.99,-235.5 636.59,-143.22 714.5,-98 766.36,-67.9 923.59,-45.17 1026.76,-32.99"/>
<polygon fill="#7c3aed" stroke="#7c3aed" stroke-width="1.8" points="1027.09,-35.77 1034.71,-32.06 1026.44,-30.21 1027.09,-35.77"/>
<text text-anchor="start" x="649.5" y="-165.8" font-family="Arial" font-size="9.00" fill="#333333">EXISTS</text>
<text text-anchor="start" x="642.5" y="-155.8" font-family="Arial" font-size="9.00" fill="#333333">по imageId</text>
</g>
<!-- p_like&#45;&gt;user -->
<g id="edge20" class="edge">
<title>p_like&#45;&gt;user</title>
<path fill="none" stroke="#7c3aed" stroke-width="1.8" stroke-dasharray="5,2" d="M2273.35,-576.23C2047.59,-648.91 1357.31,-871.14 1148.18,-938.47"/>
<polygon fill="#7c3aed" stroke="#7c3aed" stroke-width="1.8" points="1147.11,-935.87 1140.35,-940.99 1148.82,-941.2 1147.11,-935.87"/>
<text text-anchor="start" x="1585" y="-824.8" font-family="Arial" font-size="9.00" fill="#333333">Мгновенное</text>
<text text-anchor="start" x="1579" y="-814.8" font-family="Arial" font-size="9.00" fill="#333333">обновление UI</text>
<text text-anchor="start" x="1571.5" y="-804.8" font-family="Arial" font-size="9.00" fill="#333333">(Optimistic Update)</text>
</g>
<!-- ds_likes -->
<g id="node9" class="node">
<title>ds_likes</title>
<path fill="#7c3aed" stroke="transparent" stroke-width="2" d="M2266,-40C2266,-40 2117,-40 2117,-40 2111,-40 2105,-34 2105,-28 2105,-28 2105,-16 2105,-16 2105,-10 2111,-4 2117,-4 2117,-4 2266,-4 2266,-4 2272,-4 2278,-10 2278,-16 2278,-16 2278,-28 2278,-28 2278,-34 2272,-40 2266,-40"/>
<polygon fill="white" stroke="transparent" points="2113,-8 2113,-36 2270,-36 2270,-8 2113,-8"/>
<polygon fill="#ede9fe" stroke="transparent" points="2114.5,-9 2114.5,-35 2139.5,-35 2139.5,-9 2114.5,-9"/>
<polygon fill="none" stroke="#7c3aed" points="2114.5,-9 2114.5,-35 2139.5,-35 2139.5,-9 2114.5,-9"/>
<text text-anchor="start" x="2123" y="-19.6" font-family="Arial" font-weight="bold" font-size="13.00">2</text>
<text text-anchor="start" x="2167" y="-19.9" font-family="Arial" font-weight="bold" font-size="12.00">База лайков</text>
<polygon fill="none" stroke="#7c3aed" points="2113,-8 2113,-36 2270,-36 2270,-8 2113,-8"/>
</g>
<!-- p_like&#45;&gt;ds_likes -->
<g id="edge17" class="edge">
<title>p_like&#45;&gt;ds_likes</title>
<path fill="none" stroke="#7c3aed" stroke-width="1.8" d="M2362.3,-522.77C2378.8,-492.32 2401.5,-441.9 2401.5,-395 2401.5,-395 2401.5,-395 2401.5,-162 2401.5,-98.09 2333.02,-61.84 2274.27,-42.51"/>
<polygon fill="#7c3aed" stroke="#7c3aed" stroke-width="1.8" points="2274.9,-39.77 2266.43,-40 2273.2,-45.1 2274.9,-39.77"/>
<text text-anchor="start" x="2401.5" y="-313.8" font-family="Arial" font-size="9.00" fill="#333333">INSERT / DELETE</text>
<text text-anchor="start" x="2414.5" y="-303.8" font-family="Arial" font-size="9.00" fill="#333333">(toggle like)</text>
</g>
<!-- ds_comments -->
<g id="node10" class="node">
<title>ds_comments</title>
<path fill="#7c3aed" stroke="transparent" stroke-width="2" d="M191,-44C191,-44 12,-44 12,-44 6,-44 0,-38 0,-32 0,-32 0,-12 0,-12 0,-6 6,0 12,0 12,0 191,0 191,0 197,0 203,-6 203,-12 203,-12 203,-32 203,-32 203,-38 197,-44 191,-44"/>
<polygon fill="white" stroke="transparent" points="8,-4 8,-40 195,-40 195,-4 8,-4"/>
<polygon fill="#ede9fe" stroke="transparent" points="9.5,-5 9.5,-39 34.5,-39 34.5,-5 9.5,-5"/>
<polygon fill="none" stroke="#7c3aed" points="9.5,-5 9.5,-39 34.5,-39 34.5,-5 9.5,-5"/>
<text text-anchor="start" x="18" y="-19.6" font-family="Arial" font-weight="bold" font-size="13.00">3</text>
<text text-anchor="start" x="100" y="-25.4" font-family="Arial" font-weight="bold" font-size="12.00">База</text>
<text text-anchor="start" x="70.5" y="-13.4" font-family="Arial" font-weight="bold" font-size="12.00">комментариев</text>
<polygon fill="none" stroke="#7c3aed" points="8,-4 8,-40 195,-40 195,-4 8,-4"/>
</g>
<!-- p_comment&#45;&gt;ds_comments -->
<g id="edge19" class="edge">
<title>p_comment&#45;&gt;ds_comments</title>
<path fill="none" stroke="#7c3aed" stroke-width="1.8" d="M135.23,-522.76C121.08,-492.11 101.5,-441.33 101.5,-395 101.5,-395 101.5,-395 101.5,-162 101.5,-124.17 101.5,-80.54 101.5,-52.4"/>
<polygon fill="#7c3aed" stroke="#7c3aed" stroke-width="1.8" points="104.3,-52.19 101.5,-44.19 98.7,-52.19 104.3,-52.19"/>
<text text-anchor="start" x="101.5" y="-313.8" font-family="Arial" font-size="9.00" fill="#333333">INSERT / DELETE</text>
<text text-anchor="start" x="120" y="-303.8" font-family="Arial" font-size="9.00" fill="#333333">comment</text>
</g>
<!-- p_page&#45;&gt;p_load -->
<g id="edge10" class="edge">
<title>p_page&#45;&gt;p_load</title>
<path fill="none" stroke="#7c3aed" stroke-width="1.8" stroke-dasharray="5,2" d="M1247.65,-340.26C1313.71,-404.32 1474.59,-560.3 1545.71,-629.26"/>
<polygon fill="#7c3aed" stroke="#7c3aed" stroke-width="1.8" points="1543.8,-631.31 1551.49,-634.87 1547.69,-627.29 1543.8,-631.31"/>
<text text-anchor="start" x="1379.5" y="-461.8" font-family="Arial" font-size="9.00" fill="#333333">nextCursor,</text>
<text text-anchor="start" x="1386.5" y="-451.8" font-family="Arial" font-size="9.00" fill="#333333">limit=20</text>
</g>
<!-- ds_posts&#45;&gt;p_load -->
<g id="edge15" class="edge">
<title>ds_posts&#45;&gt;p_load</title>
<path fill="none" stroke="#7c3aed" stroke-width="1.8" stroke-dasharray="5,2" d="M1139.61,-40.36C1202.1,-101.13 1411.37,-312.08 1530.5,-523 1549.3,-556.28 1563.08,-597.9 1571.35,-627.08"/>
<polygon fill="#7c3aed" stroke="#7c3aed" stroke-width="1.8" points="1568.71,-628 1573.54,-634.96 1574.1,-626.5 1568.71,-628"/>
<text text-anchor="start" x="1406.5" y="-318.8" font-family="Arial" font-size="9.00" fill="#333333">Данные постов,</text>
<text text-anchor="start" x="1417" y="-308.8" font-family="Arial" font-size="9.00" fill="#333333">likesCount,</text>
<text text-anchor="start" x="1406.5" y="-298.8" font-family="Arial" font-size="9.00" fill="#333333">commentsCount</text>
</g>
<!-- ds_likes&#45;&gt;p_load -->
<g id="edge18" class="edge">
<title>ds_likes&#45;&gt;p_load</title>
<path fill="none" stroke="#7c3aed" stroke-width="1.8" stroke-dasharray="5,2" d="M2186.94,-40.41C2180.5,-66.6 2169.5,-117.78 2169.5,-162 2169.5,-460 2169.5,-460 2169.5,-460 2169.5,-566.36 1821.84,-629.12 1660.72,-652.49"/>
<polygon fill="#7c3aed" stroke="#7c3aed" stroke-width="1.8" points="1660.24,-649.72 1652.72,-653.64 1661.04,-655.27 1660.24,-649.72"/>
<text text-anchor="start" x="2169.5" y="-308.8" font-family="Arial" font-size="9.00" fill="#333333">isLikedByUser</text>
</g>
<!-- ds_s3&#45;&gt;p_load -->
<g id="edge16" class="edge">
<title>ds_s3&#45;&gt;p_load</title>
<path fill="none" stroke="#7c3aed" stroke-width="1.8" stroke-dasharray="5,2" d="M1848.54,-44.08C1887.29,-67.26 1939.5,-108.42 1939.5,-162 1939.5,-460 1939.5,-460 1939.5,-460 1939.5,-587.18 1766.67,-635.6 1660.85,-653.33"/>
<polygon fill="#7c3aed" stroke="#7c3aed" stroke-width="1.8" points="1660.16,-650.6 1652.72,-654.65 1661.06,-656.13 1660.16,-650.6"/>
<text text-anchor="start" x="1959" y="-313.8" font-family="Arial" font-size="9.00" fill="#333333">URL</text>
<text text-anchor="start" x="1939.5" y="-303.8" font-family="Arial" font-size="9.00" fill="#333333">изображений</text>
</g>
</g>
</svg>
